<svg width="31" height="32" viewBox="0 0 31 32" fill="none" xmlns="http://www.w3.org/2000/svg">
<path d="M12.0499 0C5.39552 0 0 5.39552 0 12.0499C0 18.7043 5.39552 24.0998 12.0499 24.0998C14.6088 24.0998 16.9819 23.3017 18.9325 21.9422L18.934 21.9407L27.8707 30.8775C28.0365 31.0434 28.3002 31.0476 28.4704 30.8775L30.879 28.469C31.0448 28.3031 31.0363 28.0281 30.8775 27.8693L21.9421 18.934C23.3016 16.9819 24.0998 14.6087 24.0998 12.0499C24.0998 5.39552 18.7042 0 12.0499 0ZM12.0499 21.2645C6.96053 21.2645 2.83523 17.1392 2.83523 12.0499C2.83523 6.96058 6.96058 2.83528 12.0499 2.83528C17.1391 2.83528 21.2645 6.96058 21.2645 12.0499C21.2645 17.1392 17.1392 21.2645 12.0499 21.2645Z" fill="white"/>
</svg>
