<svg width="236" height="235" viewBox="0 0 236 235" fill="none" xmlns="http://www.w3.org/2000/svg">
<circle cx="118.24" cy="117.5" r="111" fill="#00202D" stroke="#1B93A6" stroke-width="13"/>
<path d="M140.302 78.0056C140.302 63.6431 128.659 52 114.296 52C99.9337 52 88.2905 63.6431 88.2905 78.0056C88.2905 92.3682 99.9337 104.011 114.296 104.011C128.659 104.011 140.302 92.3682 140.302 78.0056ZM95.7207 78.0056C95.7207 67.7467 104.037 59.4302 114.296 59.4302C124.555 59.4302 132.872 67.7467 132.872 78.0056C132.872 88.2646 124.555 96.5811 114.296 96.5811C104.037 96.5811 95.7207 88.2646 95.7207 78.0056ZM114.302 104.011C87.6777 104.011 66 124.825 66 150.527V167.168C66 169.22 67.6633 170.883 69.7151 170.883C71.7669 170.883 73.4302 169.22 73.4302 167.168V150.527C73.4302 128.998 91.7152 111.441 114.302 111.441C119.209 111.441 123.991 112.267 128.489 113.86C130.423 114.545 132.546 113.532 133.231 111.598C133.916 109.664 132.903 107.541 130.969 106.856C125.676 104.982 120.056 104.011 114.302 104.011Z" fill="white"/>
<path fill-rule="evenodd" clip-rule="evenodd" d="M132.906 159.175L165.734 126.347C167.161 124.92 169.516 124.917 170.967 126.368C172.428 127.829 172.421 130.168 170.974 131.615L134.326 168.263C132.87 169.719 130.53 169.707 129.079 168.256C129.038 168.215 129.028 168.205 129.018 168.194L115.943 155.12C114.492 153.668 114.494 151.318 115.944 149.867C117.405 148.406 119.747 148.416 121.197 149.866L131.706 160.375L132.906 159.175Z" fill="white"/>
</svg>
