<svg width="32" height="32" viewBox="0 0 32 32" fill="none" xmlns="http://www.w3.org/2000/svg">
<path d="M25.3255 15.8919C25.3255 16.3243 25.6484 16.7568 26.1867 16.7568C26.725 16.7568 27.0479 16.4324 27.0479 15.8919C27.0479 9.94595 22.2035 5.08108 16.2826 5.08108C15.852 5.08108 15.4214 5.40541 15.4214 5.94595C15.4214 6.48649 15.7443 6.81081 16.2826 6.81081C21.2346 6.7027 25.3255 10.8108 25.3255 15.8919ZM15.4214 10.2703C15.4214 10.7027 15.7443 11.1351 16.2826 11.1351C18.8663 11.1351 20.9117 13.1892 20.9117 15.7838C20.9117 16.2162 21.2347 16.6487 21.7729 16.6487C22.3112 16.6487 22.6341 16.3243 22.6341 15.7838C22.6341 12.3243 19.8352 9.51351 16.3902 9.51351C15.7443 9.51351 15.4214 9.83784 15.4214 10.2703ZM16.1749 0C15.7443 0 15.3137 0.324324 15.3137 0.864865C15.3137 1.40541 15.6367 1.72973 16.1749 1.72973C23.926 1.72973 30.2775 8.10811 30.2775 15.8919C30.2775 16.3243 30.6005 16.7568 31.1388 16.7568C31.677 16.7568 32 16.4324 32 15.8919C31.8923 7.13514 24.8949 0 16.1749 0ZM20.6964 18.9189C20.5887 18.8108 20.3734 18.7027 20.1581 18.7027C19.9428 18.7027 19.7275 18.8108 19.6198 18.9189L17.8974 20.6486C17.2515 21.2973 16.1749 21.2973 15.529 20.6486L11.5458 16.973C10.8999 16.3243 10.8999 15.2432 11.5458 14.5946L13.4836 12.6486C13.8066 12.3243 13.8066 11.7838 13.4836 11.4595L5.51724 3.56757C5.40959 3.45946 5.19428 3.35135 4.97897 3.35135C4.76367 3.35135 4.54836 3.45946 4.44071 3.56757C4.33305 3.67568 1.85702 6.16216 1.31876 6.81081C-0.188394 8.32432 -0.403701 11.4595 0.672834 14.1622C3.04121 20.1081 10.8999 27.3514 17.4668 31.3514C18.005 31.6757 19.2969 32 20.5887 32C21.7729 32 23.4954 31.7838 25.0025 30.4865C26.402 29.2973 28.0168 27.5676 28.1245 27.4595C28.4474 27.1351 28.4474 26.5946 28.1245 26.3784L20.6964 18.9189ZM23.926 29.1892C22.8495 30.1622 21.5576 30.2703 20.5887 30.2703C19.4045 30.2703 18.4357 29.9459 18.328 29.8378C10.8999 25.4054 4.11775 18.5946 2.17998 13.5135C1.31876 11.2432 1.64172 8.75676 2.39529 7.89189C2.8259 7.45946 4.11775 6.16216 4.97897 5.2973L11.6535 12L10.254 13.4054C8.96215 14.7027 8.96215 16.7568 10.254 18.0541L14.2372 21.7297C15.4214 22.9189 17.5744 22.9189 18.8663 21.7297L20.0505 20.5405L26.2944 26.8108C25.7561 27.5676 24.7872 28.5405 23.926 29.1892Z" fill="#024059"/>
</svg>
