<svg width="36" height="26" viewBox="0 0 36 26" fill="none" xmlns="http://www.w3.org/2000/svg">
<path d="M32.8303 3.60855C32.764 3.5197 32.6808 3.44477 32.5856 3.38805C32.4904 3.33134 32.3849 3.29394 32.2752 3.27801C32.1655 3.26208 32.0537 3.26792 31.9463 3.2952C31.8388 3.32248 31.7378 3.37066 31.649 3.43699L18.0393 13.5957C17.9906 13.6323 17.9314 13.652 17.8706 13.652C17.8097 13.652 17.7505 13.6323 17.7018 13.5957L4.35932 3.39199C4.27123 3.32477 4.17076 3.27556 4.06366 3.24717C3.95655 3.21877 3.8449 3.21175 3.73508 3.22651C3.62526 3.24127 3.51942 3.27751 3.42361 3.33317C3.32779 3.38882 3.24388 3.46281 3.17666 3.5509C3.10944 3.63899 3.06023 3.73945 3.03183 3.84656C3.00344 3.95367 2.99642 4.06532 3.01118 4.17514C3.02593 4.28496 3.06217 4.39079 3.11783 4.48661C3.17349 4.58242 3.24748 4.66633 3.33557 4.73356L13.8262 12.7576L3.45088 20.5764C3.3615 20.643 3.28612 20.7267 3.22906 20.8224C3.17199 20.9182 3.13436 21.0243 3.11829 21.1347C3.10223 21.245 3.10806 21.3575 3.13545 21.4655C3.16284 21.5736 3.21124 21.6753 3.27791 21.7647C3.34458 21.854 3.42819 21.9294 3.52399 21.9865C3.61979 22.0435 3.72589 22.0812 3.83623 22.0972C3.94657 22.1133 4.059 22.1075 4.16708 22.0801C4.27517 22.0527 4.37681 22.0043 4.46619 21.9376L15.2184 13.8207L16.6753 14.9457C17.015 15.2058 17.4301 15.3481 17.8579 15.3511C18.2857 15.3542 18.7028 15.2178 19.0462 14.9626L20.5762 13.8207L31.4549 21.9376C31.5438 22.0039 31.6448 22.0521 31.7522 22.0793C31.8597 22.1066 31.9714 22.1124 32.0811 22.0965C32.1908 22.0806 32.2963 22.0432 32.3915 21.9865C32.4868 21.9298 32.5699 21.8549 32.6362 21.7661C32.7025 21.6772 32.7506 21.5762 32.7779 21.4688C32.8052 21.3613 32.811 21.2496 32.7951 21.1399C32.7791 21.0302 32.7417 20.9247 32.685 20.8295C32.6284 20.7342 32.5535 20.6511 32.4646 20.5848L21.9853 12.7548L32.6587 4.78137C32.8357 4.64768 32.953 4.44966 32.9851 4.23016C33.0172 4.01066 32.9616 3.78734 32.8303 3.60855Z" fill="#024059"/>
<path d="M31.7812 0H4.21875C3.09987 0 2.02681 0.444474 1.23564 1.23564C0.444474 2.02681 0 3.09987 0 4.21875L0 21.0938C0 22.2126 0.444474 23.2857 1.23564 24.0769C2.02681 24.868 3.09987 25.3125 4.21875 25.3125H31.7812C32.9001 25.3125 33.9732 24.868 34.7644 24.0769C35.5555 23.2857 36 22.2126 36 21.0938V4.21875C36 3.09987 35.5555 2.02681 34.7644 1.23564C33.9732 0.444474 32.9001 0 31.7812 0ZM34.3125 21.0938C34.3125 21.7651 34.0458 22.4089 33.5711 22.8836C33.0964 23.3583 32.4526 23.625 31.7812 23.625H4.21875C3.54742 23.625 2.90359 23.3583 2.42889 22.8836C1.95418 22.4089 1.6875 21.7651 1.6875 21.0938V4.21875C1.6875 3.54742 1.95418 2.90359 2.42889 2.42889C2.90359 1.95418 3.54742 1.6875 4.21875 1.6875H31.7812C32.4526 1.6875 33.0964 1.95418 33.5711 2.42889C34.0458 2.90359 34.3125 3.54742 34.3125 4.21875V21.0938Z" fill="#024059"/>
</svg>
