<svg width="191" height="158" viewBox="0 0 191 158" fill="none" xmlns="http://www.w3.org/2000/svg">
<path d="M190.465 38.5492H160.622V25.6994H79.3245L69.6873 0H0V157.409H160.622V154.605L190.465 38.5492ZM182.177 44.974L160.622 128.806V44.974H182.177ZM6.42486 6.42486H65.2348L74.8721 32.1243H154.197V38.5492V150.984H6.42486V6.42486Z" fill="#023347"/>
<path d="M19.2746 138.135H96.3729V89.9481H19.2746V138.135ZM25.6995 96.3729H89.9481V131.71H25.6995V96.3729Z" fill="#023347"/>
<path d="M64.2486 118.86H35.3368C33.5603 118.86 32.1243 120.296 32.1243 122.072C32.1243 123.849 33.5603 125.285 35.3368 125.285H64.2486C66.0251 125.285 67.4611 123.849 67.4611 122.072C67.4611 120.296 66.0251 118.86 64.2486 118.86Z" fill="#023347"/>
<path d="M35.3368 109.223H48.1865C49.963 109.223 51.3989 107.787 51.3989 106.01C51.3989 104.234 49.963 102.798 48.1865 102.798H35.3368C33.5603 102.798 32.1243 104.234 32.1243 106.01C32.1243 107.787 33.5603 109.223 35.3368 109.223Z" fill="#023347"/>
<path d="M80.3108 102.798H73.8859C72.1094 102.798 70.6735 104.234 70.6735 106.01C70.6735 107.787 72.1094 109.223 73.8859 109.223H80.3108C82.0872 109.223 83.5232 107.787 83.5232 106.01C83.5232 104.234 82.0872 102.798 80.3108 102.798Z" fill="#023347"/>
<path d="M74.8175 119.792C74.236 120.399 73.8859 121.202 73.8859 122.072C73.8859 122.94 74.236 123.743 74.8175 124.321C75.4246 124.928 76.2277 125.285 77.0983 125.285C77.9335 125.285 78.7688 124.931 79.3791 124.353C79.9574 123.743 80.3107 122.908 80.3107 122.072C80.3107 121.237 79.9574 120.399 79.3791 119.792C78.1905 118.603 76.0061 118.603 74.8175 119.792Z" fill="#023347"/>
<path d="M61.0362 109.223C61.8714 109.223 62.7066 108.869 63.317 108.291C63.8952 107.681 64.2486 106.845 64.2486 106.01C64.2486 105.14 63.8952 104.337 63.317 103.729C62.1284 102.541 59.9086 102.541 58.7553 103.729C58.1739 104.337 57.8237 105.175 57.8237 106.01C57.8237 106.845 58.1739 107.681 58.7553 108.291C59.3625 108.869 60.2009 109.223 61.0362 109.223Z" fill="#023347"/>
</svg>
