<svg width="30" height="30" viewBox="0 0 30 30" fill="none" xmlns="http://www.w3.org/2000/svg">
<path d="M2.72727 0C1.23673 0 0 1.23673 0 2.72727V27.2727C0 28.7633 1.23673 30 2.72727 30H27.2727C28.7633 30 30 28.7633 30 27.2727V2.72727C30 1.23673 28.7633 0 27.2727 0H2.72727ZM2.72727 2.72727H27.2727V27.2727H20.1989V18.0682H23.7358L24.2472 13.9773H20.1989V11.3352C20.1989 10.1434 20.4931 9.33239 22.2017 9.33239H24.4176V5.625C24.0399 5.57455 22.727 5.49716 21.2216 5.49716C18.0798 5.49716 15.9375 7.38682 15.9375 10.9091V13.9773H12.358V18.0682H15.9375V27.2727H2.72727V2.72727Z" fill="#024059"/>
</svg>
