<svg width="151" height="120" viewBox="0 0 151 120" fill="none" xmlns="http://www.w3.org/2000/svg">
<rect width="151" height="120" rx="15" fill="#C6E4E9"/>
<path fill-rule="evenodd" clip-rule="evenodd" d="M34 34.75C34 33.6652 34.8794 32.7857 35.9643 32.7857H114.536C115.62 32.7857 116.5 33.6652 116.5 34.75V62.25C116.5 63.2408 115.762 64.0764 114.779 64.199L83.3507 68.1275L82.8636 64.2296L112.571 60.5159V36.7143H37.9286V60.5159L67.6364 64.2296L67.1492 68.1275L35.7206 64.199C34.7377 64.0764 34 63.2408 34 62.25V34.75Z" fill="#023347"/>
<path fill-rule="evenodd" clip-rule="evenodd" d="M65.4287 56.3571C65.4287 55.2724 66.3082 54.3928 67.393 54.3928H83.1073C84.192 54.3928 85.0716 55.2724 85.0716 56.3571V76C85.0716 77.0846 84.192 77.9643 83.1073 77.9643H67.393C66.3082 77.9643 65.4287 77.0846 65.4287 76V56.3571ZM69.3573 58.3214V74.0357H81.143V58.3214H69.3573Z" fill="#023347"/>
<path fill-rule="evenodd" clip-rule="evenodd" d="M61.5 28.8571C61.5 24.5178 65.0178 21 69.3571 21H81.1429C85.4824 21 89 24.5178 89 28.8571V34.75H85.0714V28.8571C85.0714 26.6875 83.3126 24.9286 81.1429 24.9286H69.3571C67.1875 24.9286 65.4286 26.6875 65.4286 28.8571V34.75H61.5V28.8571Z" fill="#023347"/>
<path fill-rule="evenodd" clip-rule="evenodd" d="M37.9285 93.6786V64.2143H41.857V91.7143H108.643V64.2143H112.571V93.6786C112.571 94.7633 111.692 95.6429 110.607 95.6429H39.8928C38.8079 95.6429 37.9285 94.7633 37.9285 93.6786Z" fill="#023347"/>
</svg>
