<svg width="178" height="175" viewBox="0 0 178 175" fill="none" xmlns="http://www.w3.org/2000/svg">
<path d="M144.812 38.6711H170.056C172.422 38.6711 174 40.2488 174 42.6154V140.434C174 142.801 172.422 144.379 170.056 144.379H8.33872C5.97214 144.379 4.39441 142.801 4.39441 140.434V42.6154C4.39441 40.2488 5.97214 38.6711 8.33872 38.6711H28.4547" stroke="#1B93A6" stroke-width="7" stroke-miterlimit="10"/>
<path d="M4 121.502H173.606" stroke="#1B93A6" stroke-width="7" stroke-miterlimit="10"/>
<path d="M46.5986 142.407V171.2" stroke="#1B93A6" stroke-width="7" stroke-miterlimit="10"/>
<path d="M129.429 142.407V171.2" stroke="#1B93A6" stroke-width="7" stroke-miterlimit="10"/>
<path d="M31.6102 171.2H144.812" stroke="#1B93A6" stroke-width="7" stroke-miterlimit="10"/>
<path d="M37.5267 71.0144H97.0859L121.146 89.9471C121.541 90.3416 121.935 89.9471 121.935 89.5527V71.0144H134.557V3.96106H38.71C38.3156 3.96106 37.9212 4.35549 37.9212 4.74992V71.0144H37.5267Z" stroke="#1B93A6" stroke-width="7" stroke-miterlimit="10"/>
<path d="M52.9094 20.1328H121.541" stroke="#1B93A6" stroke-width="7" stroke-miterlimit="10"/>
<path d="M52.9094 35.1212H121.541" stroke="#1B93A6" stroke-width="7" stroke-miterlimit="10"/>
<path d="M52.9094 50.504H89.986" stroke="#1B93A6" stroke-width="7" stroke-miterlimit="10"/>
</svg>
