<svg width="30" height="30" viewBox="0 0 30 30" fill="none" xmlns="http://www.w3.org/2000/svg">
<path fill-rule="evenodd" clip-rule="evenodd" d="M15.0089 0.00355849C17.0848 0.00355849 19.1608 -0.00605089 21.2366 0.00631239C23.1896 0.0179725 25.0238 0.463344 26.613 1.6506C28.6884 3.20108 29.7504 5.31898 29.9481 7.87457C30.0177 8.77399 29.996 9.68122 29.9972 10.5849C30.0019 14.0893 29.9993 17.5938 29.9989 21.0984C29.9988 22.5297 29.7997 23.9272 29.1941 25.236C27.9654 27.891 25.8223 29.3424 22.9946 29.8454C22.405 29.9503 21.7968 29.9894 21.197 29.9912C17.0564 30.0034 12.9157 30.0006 8.77506 29.9963C6.62189 29.9941 4.65261 29.4255 2.97446 28.0286C1.26948 26.6095 0.36977 24.7534 0.0898974 22.5773C0.0416162 22.2019 0.0120557 21.8213 0.0117041 21.4431C0.00766118 17.0904 -0.0186181 12.7374 0.0240381 8.38516C0.0473584 6.00725 0.839135 3.89893 2.60931 2.23765C4.07763 0.85976 5.86243 0.139789 7.84579 0.06933C10.2307 -0.0153966 12.6209 0.0492616 15.0088 0.0492616C15.0089 0.0339979 15.0089 0.0187636 15.0089 0.00355849ZM14.9855 27.2276C16.9829 27.2276 18.9803 27.2356 20.9777 27.2221C21.5 27.2185 22.03 27.1926 22.5425 27.0999C24.5004 26.746 25.9888 25.764 26.7689 23.8576C27.1652 22.8892 27.2947 21.8501 27.3115 20.8437C27.3771 16.9392 27.3401 13.0331 27.3355 9.12751C27.335 8.70441 27.3304 8.27659 27.2706 7.85911C27.0021 5.98446 26.1894 4.44792 24.4642 3.51353C23.5012 2.99202 22.4559 2.79511 21.3693 2.79476C17.1848 2.79353 13.0003 2.7923 8.81581 2.79731C8.43765 2.79778 8.05614 2.8187 7.68196 2.87128C5.55074 3.17052 3.98093 4.22087 3.1953 6.2873C2.87825 7.12118 2.77694 7.99495 2.77677 8.88209C2.77615 12.9662 2.77223 17.0501 2.78213 21.1343C2.78333 21.6339 2.8206 22.1408 2.91004 22.6318C3.30681 24.8101 4.52148 26.3074 6.68473 26.9094C7.40561 27.11 8.1762 27.1985 8.92658 27.2136C10.9455 27.2542 12.9658 27.2274 14.9855 27.2276Z" fill="#023347"/>
<path fill-rule="evenodd" clip-rule="evenodd" d="M22.7315 14.9523C22.7296 19.2231 19.245 22.6968 14.9731 22.6864C10.6995 22.6761 7.25792 19.2266 7.25543 14.9512C7.25294 10.6806 10.7324 7.20653 15.0075 7.21119C19.2457 7.21576 22.7334 10.7112 22.7315 14.9523ZM14.9964 19.8982C17.7212 19.9002 19.9654 17.6577 19.9607 14.9375C19.956 12.2361 17.7175 9.99342 15.0149 9.98244C12.294 9.97139 10.0509 12.2071 10.0451 14.9358C10.0394 17.6684 12.262 19.896 14.9964 19.8982Z" fill="#023347"/>
<path fill-rule="evenodd" clip-rule="evenodd" d="M23.0184 8.76963C22.051 8.76099 21.2885 7.98691 21.2916 7.01674C21.2946 6.03556 22.0763 5.26625 23.0632 5.27299C24.0195 5.27961 24.7989 6.06893 24.796 7.02799C24.7931 8.00065 23.9992 8.77839 23.0184 8.76963Z" fill="#023347"/>
</svg>
