<svg width="151" height="120" viewBox="0 0 151 120" fill="none" xmlns="http://www.w3.org/2000/svg">
<rect width="151" height="120" rx="15" fill="#C6E4E9"/>
<path d="M66.2577 25.6451H51.8493C51.0539 25.6451 50.4084 24.9996 50.4084 24.2043C50.4084 23.4089 51.0539 22.7634 51.8493 22.7634H66.2577C67.0531 22.7634 67.6986 23.4089 67.6986 24.2043C67.6986 24.9996 67.0531 25.6451 66.2577 25.6451Z" fill="#023347"/>
<path d="M60.4943 97.6872H57.6126C56.8173 97.6872 56.1718 97.0417 56.1718 96.2463C56.1718 95.451 56.8173 94.8055 57.6126 94.8055H60.4943C61.2896 94.8055 61.9351 95.451 61.9351 96.2463C61.9351 97.0417 61.2896 97.6872 60.4943 97.6872Z" fill="#023347"/>
<path d="M74.9027 103.451H43.2042C39.2304 103.451 36 100.22 36 96.2463V24.2042C36 20.2304 39.2304 17 43.2042 17H74.9027C78.8766 17 82.1069 20.2304 82.1069 24.2042V35.7309C82.1069 36.5263 81.4614 37.1718 80.6661 37.1718C79.8708 37.1718 79.2253 36.5263 79.2253 35.7309V24.2042C79.2253 21.8211 77.2859 19.8817 74.9027 19.8817H43.2042C40.8211 19.8817 38.8817 21.8211 38.8817 24.2042V96.2463C38.8817 98.6295 40.8211 100.569 43.2042 100.569H74.9027C77.2859 100.569 79.2253 98.6295 79.2253 96.2463C79.2253 95.451 79.8708 94.8055 80.6661 94.8055C81.4614 94.8055 82.1069 95.451 82.1069 96.2463C82.1069 100.22 78.8766 103.451 74.9027 103.451Z" fill="#023347"/>
<path d="M66.2576 91.9238H63.3702C62.5748 91.9238 61.9293 91.2783 61.9293 90.483C61.9293 89.6876 62.5748 89.0421 63.3702 89.0421H66.2576C75.3551 89.0421 96.5153 84.9703 96.5153 47.2577V37.1718H92.1928C91.6769 37.1718 91.2015 36.8951 90.9421 36.4485C90.6828 36.0018 90.6885 35.4485 90.945 35.0048L101.031 17.7147C101.55 16.83 103.005 16.83 103.521 17.7147L113.607 35.0048C113.866 35.4485 113.869 36.0018 113.609 36.4485C113.35 36.8951 112.88 37.1718 112.365 37.1718H108.042V47.2577C108.042 48.053 107.397 48.6985 106.601 48.6985C105.806 48.6985 105.16 48.053 105.16 47.2577V35.7309C105.16 34.9356 105.806 34.2901 106.601 34.2901H109.855L102.279 21.2995L94.7027 34.2901H97.9561C98.7515 34.2901 99.397 34.9356 99.397 35.7309V47.2577C99.397 87.5696 76.2225 91.9238 66.2576 91.9238Z" fill="#023347"/>
<path d="M106.596 54.4619C107.391 54.4619 108.036 53.8169 108.036 53.0211C108.036 52.2253 107.391 51.5803 106.596 51.5803C105.8 51.5803 105.155 52.2253 105.155 53.0211C105.155 53.8169 105.8 54.4619 106.596 54.4619Z" fill="#023347"/>
<path d="M66.2578 86.1605C54.3391 86.1605 44.6451 76.4665 44.6451 64.5479C44.6451 52.6292 54.3391 42.9352 66.2578 42.9352C78.1764 42.9352 87.8704 52.6292 87.8704 64.5479C87.8704 76.4665 78.1764 86.1605 66.2578 86.1605ZM66.2578 45.8169C55.9298 45.8169 47.5268 54.2199 47.5268 64.5479C47.5268 74.8758 55.9298 83.2788 66.2578 83.2788C76.5857 83.2788 84.9887 74.8758 84.9887 64.5479C84.9887 54.2199 76.5857 45.8169 66.2578 45.8169Z" fill="#023347"/>
<path d="M78.113 49.6697C77.8191 49.6697 77.5223 49.5804 77.2687 49.3931C76.6232 48.9263 76.482 48.0243 76.9517 47.3817L79.4933 43.8862C79.9573 43.2407 80.8592 43.1024 81.5047 43.5692C82.1502 44.036 82.2914 44.938 81.8217 45.5806L79.2801 49.0761C78.9977 49.4651 78.5597 49.6697 78.113 49.6697Z" fill="#023347"/>
<path d="M54.4024 49.6698C53.9558 49.6698 53.5178 49.4652 53.2354 49.0761L50.6966 45.5778C50.2269 44.9323 50.371 44.0332 51.0136 43.5663C51.6591 43.0995 52.5582 43.2436 53.025 43.8833L55.5666 47.3817C56.0363 48.0272 55.8923 48.9263 55.2496 49.3931C54.9932 49.5804 54.6964 49.6698 54.4024 49.6698Z" fill="#023347"/>
<path d="M69.1394 40.0536H63.376C62.5807 40.0536 61.9352 39.4081 61.9352 38.6127C61.9352 37.8174 62.5807 37.1719 63.376 37.1719H69.1394C69.9347 37.1719 70.5802 37.8174 70.5802 38.6127C70.5802 39.4081 69.9347 40.0536 69.1394 40.0536Z" fill="#023347"/>
<path d="M74.1766 50.8425C74.5051 51.0298 74.7558 51.341 74.8365 51.7214C74.9575 52.0902 74.8941 52.485 74.7068 52.8078C74.5195 53.1334 74.2083 53.3841 73.8279 53.4677C73.1075 53.6809 72.2833 53.2054 72.0787 52.4591C71.9606 52.0874 72.024 51.6926 72.2084 51.3698C72.3986 51.0471 72.7098 50.7906 73.0902 50.7099C73.462 50.5889 73.851 50.6552 74.1766 50.8425Z" fill="#023347"/>
<path d="M59.771 75.7979C60.0967 75.9852 60.3474 76.2964 60.4252 76.6768C60.5347 77.0716 60.4857 77.4404 60.2955 77.7632C60.1082 78.0888 59.7999 78.3424 59.4454 78.4375C58.6731 78.619 57.8461 78.1464 57.6703 77.4145C57.5521 77.0427 57.6155 76.648 57.7971 76.3252C57.9873 76.0025 58.2841 75.7719 58.6501 75.6567C59.0506 75.5471 59.4425 75.6105 59.771 75.7979Z" fill="#023347"/>
<path d="M79.9746 56.6404C80.1648 56.9661 80.2253 57.3608 80.1043 57.7297C80.0236 58.1101 79.7729 58.4184 79.4473 58.6057C79.1216 58.793 78.7268 58.8564 78.358 58.7383C77.626 58.5625 77.1506 57.7384 77.3465 56.992C77.4301 56.6116 77.6808 56.3033 78.0035 56.1131C78.3292 55.9287 78.7269 55.8624 79.0957 55.9834C79.479 56.0641 79.7873 56.3148 79.9746 56.6404Z" fill="#023347"/>
<path d="M55.0192 71.0489C55.2065 71.3745 55.2699 71.7693 55.146 72.1382C55.0423 72.533 54.8175 72.8269 54.489 73.0142C54.1633 73.2015 53.7714 73.2678 53.4141 73.1756C52.6533 72.9479 52.175 72.1238 52.3911 71.4005C52.4747 71.0201 52.7254 70.7117 53.0481 70.5215C53.3766 70.3371 53.7484 70.2852 54.123 70.3659C54.5207 70.4726 54.829 70.7233 55.0192 71.0489Z" fill="#023347"/>
<path d="M82.0955 64.5594C82.0955 64.9369 81.9543 65.3086 81.6632 65.568C81.4039 65.859 81.0321 66.0002 80.6546 65.9973C80.28 65.9973 79.9083 65.8532 79.646 65.568C79.1014 65.0493 79.1014 64.0983 79.646 63.5508C79.9083 63.2626 80.2829 63.1214 80.6546 63.1185C81.0292 63.1214 81.4067 63.2655 81.6661 63.5537C81.9543 63.8101 82.0983 64.1819 82.0955 64.5594Z" fill="#023347"/>
<path d="M53.2816 64.5593C53.2816 64.9368 53.1375 65.3086 52.8493 65.5679C52.5611 65.859 52.2182 66.0002 51.8407 65.9973C51.4661 65.9973 51.0915 65.8561 50.8292 65.5967C50.2846 65.0204 50.2817 64.0666 50.8292 63.5479C51.0915 63.2597 51.4661 63.1185 51.8378 63.1156C52.2124 63.1185 52.5582 63.2626 52.8464 63.5219C53.1375 63.8101 53.2787 64.1818 53.2816 64.5593Z" fill="#023347"/>
<path d="M79.9746 72.4783C79.7873 72.8039 79.476 73.0546 79.0957 73.1353C78.7268 73.2564 78.332 73.1959 78.0064 73.0057C77.6836 72.8183 77.43 72.5071 77.3465 72.1267C77.1332 71.4063 77.6087 70.5822 78.3551 70.3804C78.7239 70.2623 79.1216 70.3228 79.4443 70.5101C79.77 70.6974 80.0236 71.0115 80.1043 71.3919C80.2253 71.7579 80.1619 72.1527 79.9746 72.4783Z" fill="#023347"/>
<path d="M55.0191 58.0698C54.8318 58.3954 54.5206 58.6461 54.1402 58.7268C53.7454 58.8334 53.3766 58.7845 53.0509 58.5972C52.7253 58.4098 52.4746 58.0986 52.3766 57.7442C52.1922 56.9719 52.6677 56.1448 53.3996 55.9719C53.7714 55.8538 54.1662 55.9143 54.4889 56.1016C54.8145 56.2889 55.0422 56.5886 55.1603 56.9546C55.2698 57.3494 55.2064 57.7442 55.0191 58.0698Z" fill="#023347"/>
<path d="M74.1766 78.2761C73.851 78.4634 73.4562 78.5268 73.0873 78.4058C72.707 78.3251 72.3957 78.0744 72.2084 77.7459C72.0211 77.4231 71.9577 77.0283 72.0787 76.6566C72.2545 75.9247 73.0787 75.4492 73.825 75.648C74.2054 75.7287 74.5167 75.9794 74.704 76.305C74.8913 76.6307 74.9518 77.0283 74.8336 77.3972C74.7529 77.7776 74.5022 78.0859 74.1766 78.2761Z" fill="#023347"/>
<path d="M59.7681 53.3208C59.4425 53.5081 59.0477 53.5715 58.6789 53.4505C58.2841 53.3467 57.9873 53.1191 57.7999 52.7905C57.6126 52.4678 57.5492 52.073 57.6415 51.7157C57.8691 50.9549 58.6933 50.4766 59.4137 50.6927C59.7941 50.7762 60.1053 51.027 60.2926 51.3526C60.4799 51.6782 60.5289 52.05 60.4482 52.4275C60.3445 52.8222 60.0938 53.1306 59.7681 53.3208Z" fill="#023347"/>
<path d="M66.2577 80.397C65.8831 80.397 65.5085 80.2529 65.2491 79.9647C64.961 79.7054 64.8169 79.3308 64.8169 78.9561C64.8169 78.5815 64.961 78.2069 65.2491 77.9447C65.7678 77.4 66.7188 77.4 67.2663 77.9447C67.5545 78.2069 67.6986 78.5815 67.6986 78.9561C67.6986 79.3308 67.5545 79.7054 67.2663 79.9647C67.007 80.2529 66.6324 80.397 66.2577 80.397Z" fill="#023347"/>
<path d="M66.2577 51.5802C65.8831 51.5802 65.5085 51.4361 65.2491 51.148C64.961 50.8598 64.8169 50.514 64.8169 50.1394C64.8169 49.7648 64.961 49.3901 65.2203 49.1279C65.7967 48.5833 66.7476 48.5833 67.2663 49.1279C67.5545 49.3901 67.6986 49.7648 67.6986 50.1394C67.6986 50.514 67.5545 50.8598 67.2951 51.148C67.007 51.4361 66.6324 51.5802 66.2577 51.5802Z" fill="#023347"/>
<path d="M66.2577 61.6662C66.7937 61.6662 67.2692 61.8506 67.6986 62.1071V50.1395C67.6986 49.3441 67.0531 48.6986 66.2577 48.6986C65.4624 48.6986 64.8169 49.3441 64.8169 50.1395V62.1071C65.2463 61.8506 65.7217 61.6662 66.2577 61.6662Z" fill="#023347"/>
<path d="M66.2577 68.8704C63.8746 68.8704 61.9352 66.931 61.9352 64.5479C61.9352 62.1647 63.8746 60.2253 66.2577 60.2253C68.6409 60.2253 70.5802 62.1647 70.5802 64.5479C70.5802 66.931 68.6409 68.8704 66.2577 68.8704ZM66.2577 63.107C65.4624 63.107 64.8169 63.7554 64.8169 64.5479C64.8169 65.3403 65.4624 65.9887 66.2577 65.9887C67.0531 65.9887 67.6985 65.3403 67.6985 64.5479C67.6985 63.7554 67.0531 63.107 66.2577 63.107Z" fill="#023347"/>
<path d="M106.596 65.9886C107.391 65.9886 108.036 65.3435 108.036 64.5478C108.036 63.752 107.391 63.1069 106.596 63.1069C105.8 63.1069 105.155 63.752 105.155 64.5478C105.155 65.3435 105.8 65.9886 106.596 65.9886Z" fill="#023347"/>
<path d="M106.596 71.752C107.391 71.752 108.036 71.1069 108.036 70.3111C108.036 69.5154 107.391 68.8703 106.596 68.8703C105.8 68.8703 105.155 69.5154 105.155 70.3111C105.155 71.1069 105.8 71.752 106.596 71.752Z" fill="#023347"/>
<path d="M106.601 80.397C105.806 80.397 105.16 79.7515 105.16 78.9562V76.0745C105.16 75.2792 105.806 74.6337 106.601 74.6337C107.397 74.6337 108.042 75.2792 108.042 76.0745V78.9562C108.042 79.7515 107.397 80.397 106.601 80.397Z" fill="#023347"/>
<path d="M106.601 97.6872H92.1929C91.3976 97.6872 90.7521 97.0417 90.7521 96.2463C90.7521 95.451 91.3976 94.8055 92.1929 94.8055H105.16V84.7196C105.16 83.9242 105.806 83.2787 106.601 83.2787C107.397 83.2787 108.042 83.9242 108.042 84.7196V96.2463C108.042 97.0417 107.397 97.6872 106.601 97.6872Z" fill="#023347"/>
</svg>
