<svg width="30" height="30" viewBox="0 0 30 30" fill="none" xmlns="http://www.w3.org/2000/svg">
<path d="M3.40909 0C1.54219 0 0 1.54219 0 3.40909V26.5909C0 28.4578 1.54219 30 3.40909 30H26.5909C28.4578 30 30 28.4578 30 26.5909V3.40909C30 1.54219 28.4578 0 26.5909 0H3.40909ZM3.40909 2.72727H26.5909C26.9822 2.72727 27.2727 3.01781 27.2727 3.40909V26.5909C27.2727 26.9822 26.9822 27.2727 26.5909 27.2727H3.40909C3.01781 27.2727 2.72727 26.9822 2.72727 26.5909V3.40909C2.72727 3.01781 3.01781 2.72727 3.40909 2.72727ZM7.41477 5.07102C6.11932 5.07102 5.07102 6.12068 5.07102 7.41477C5.07102 8.70886 6.11795 9.75852 7.41477 9.75852C8.7075 9.75852 9.75852 8.70886 9.75852 7.41477C9.75852 6.12205 8.7075 5.07102 7.41477 5.07102ZM19.7301 11.2926C17.7733 11.2926 16.4748 12.3634 15.9375 13.3807H15.8523V11.5909H12.017V24.5455H16.0227V18.1534C16.0227 16.4652 16.3585 14.8295 18.4517 14.8295C20.5149 14.8295 20.5398 16.7373 20.5398 18.2386V24.5455H24.5455V17.429C24.5455 13.9435 23.8033 11.2926 19.7301 11.2926ZM5.45455 11.5909V24.5455H9.50284V11.5909H5.45455Z" fill="#024059"/>
</svg>
