<svg width="33" height="44" viewBox="0 0 33 44" fill="none" xmlns="http://www.w3.org/2000/svg">
<path d="M17.1707 4.59302H30.6462C30.8845 4.59302 31.113 4.68767 31.2815 4.85615C31.45 5.02462 31.5446 5.25313 31.5446 5.49139V37.8328C31.5446 38.0711 31.45 38.2996 31.2815 38.4681C31.113 38.6365 30.8845 38.7312 30.6462 38.7312H17.1707" stroke="white" stroke-width="2" stroke-linecap="round" stroke-linejoin="round"/>
<path d="M1 38.2318C1.00008 38.4363 1.06992 38.6346 1.19798 38.7941C1.32604 38.9535 1.50466 39.0645 1.70432 39.1086L16.0783 42.3032C16.2095 42.3323 16.3456 42.3315 16.4765 42.3009C16.6075 42.2704 16.7298 42.2108 16.8347 42.1267C16.9395 42.0425 17.0241 41.9359 17.0823 41.8147C17.1404 41.6936 17.1707 41.5609 17.1707 41.4264V1.89802C17.1707 1.76359 17.1404 1.63089 17.0823 1.5097C17.0241 1.3885 16.9395 1.28191 16.8347 1.19776C16.7298 1.11362 16.6075 1.05407 16.4765 1.02352C16.3456 0.992961 16.2095 0.992171 16.0783 1.02121L1.70432 4.21582C1.50466 4.25999 1.32604 4.37096 1.19798 4.53038C1.06992 4.6898 1.00008 4.88814 1 5.09263V38.2318Z" stroke="white" stroke-width="2" stroke-linecap="round" stroke-linejoin="round"/>
<path d="M10.8821 24.357C12.3706 24.357 13.5772 23.1504 13.5772 21.6619C13.5772 20.1734 12.3706 18.9668 10.8821 18.9668C9.39366 18.9668 8.18701 20.1734 8.18701 21.6619C8.18701 23.1504 9.39366 24.357 10.8821 24.357Z" stroke="white" stroke-width="2" stroke-linecap="round" stroke-linejoin="round"/>
</svg>
