<svg width="90" height="90" viewBox="0 0 90 90" fill="none" xmlns="http://www.w3.org/2000/svg">
<circle cx="45" cy="45" r="45" fill="#023347"/>
<path d="M65.5892 37.1967L60.1885 30.1758V28.7758C60.1885 28.177 59.9025 27.605 59.4235 27.2458L58.0313 26.2016C57.2787 25.6373 56.2071 25.7106 55.5386 26.3722L54.7935 27.1095C54.6283 27.2729 54.4978 27.4637 54.4033 27.6698L44.4878 22.0498C44.3039 21.9456 44.0705 22.0102 43.9664 22.194L42.8181 24.22L42.1113 22.5095C42.0725 22.4158 41.9982 22.3412 41.9045 22.3023C41.8108 22.2635 41.7055 22.2633 41.6117 22.3021L31.0967 26.6468C31.0117 26.585 30.9215 26.5289 30.8251 26.4807L29.753 25.9446C28.9256 25.531 27.9225 25.7678 27.3676 26.5078L26.3196 27.905C25.9432 28.407 25.8368 29.0621 26.0353 29.6574L26.5065 31.0709L22.409 43.3632C21.6086 45.7646 21.9974 48.4362 23.4489 50.51L26.5272 54.9074V67.7924H27.2922V65.1148H38.0026V67.7924H38.7677V63.5847H50.2431V67.7924H51.0081V65.1148H61.7186V67.7924H62.4836V56.379L66.6936 43.7492C67.4386 41.5138 67.0258 39.0643 65.5892 37.1967ZM60.5778 47.5287C60.4135 47.9806 59.9801 48.2841 59.4993 48.2841H59.4235V46.4863C60.4202 44.96 61.0821 43.2039 61.3398 41.3999L61.4696 40.491C61.6421 39.2835 61.3341 38.0811 60.6022 37.1052C59.7442 35.9612 58.3782 35.2782 56.9482 35.2783H56.4863C55.0921 35.2783 53.7604 35.9442 52.9238 37.0596L52.8954 37.0974C52.1598 38.0783 51.8496 39.2835 52.0221 40.491L52.152 41.3999C52.4097 43.2039 53.0716 44.96 54.0683 46.4864V48.2841H47.183V46.6079L47.5645 46.4172C48.287 46.0559 48.8203 45.401 49.0276 44.6202C49.2019 43.9639 49.1321 43.2706 48.8393 42.6669L49.0374 42.5348C49.6033 42.1576 49.9884 41.5825 50.1218 40.9156C50.2552 40.2486 50.1209 39.5697 49.7436 39.0037L49.5038 38.644C49.6542 37.8413 49.4561 37.0224 48.949 36.3729C48.406 35.6774 47.5886 35.2786 46.7063 35.2786H46.1865C45.2282 34.435 43.7826 34.435 42.8242 35.2786H42.1543C41.2985 35.2786 40.4964 35.6582 39.9539 36.32C39.4113 36.9818 39.1964 37.8427 39.3643 38.6819L39.502 39.3707C38.7064 40.3089 38.6996 41.6918 39.4816 42.6376L39.4551 42.717C39.0146 44.0387 39.622 45.5051 40.868 46.1281L41.8278 46.6079V48.2841H34.9425V46.4964C35.6357 45.0949 36.1727 43.6161 36.5439 42.0974C37.9131 41.4708 38.7677 40.5414 38.7677 39.4863C38.7677 38.2135 37.5448 37.0953 35.4934 36.4868L34.9229 34.7751C34.8708 34.6189 34.7246 34.5136 34.56 34.5136H30.7189V35.2786H34.2843L35.611 39.2588C33.5691 39.9901 31.3263 40.0326 29.2551 39.3726L29.0229 40.1015C30.0758 40.437 31.1697 40.6039 32.2628 40.6039C33.614 40.6039 34.9637 40.3488 36.2321 39.8414C36.4202 39.7662 36.517 39.5574 36.453 39.3653L35.7956 37.3932C37.1713 37.9057 38.0026 38.6816 38.0026 39.4863C38.0026 40.7793 35.6971 42.1639 32.2649 42.1639C30.5755 42.1639 29.0058 41.8141 27.9015 41.1986L30.3134 32.0333L31.3222 31.0246C31.6834 30.6633 31.8824 30.183 31.8824 29.6721V28.1914C31.8824 27.8537 31.7945 27.5322 31.6364 27.2515L33.0657 26.6609L36.4254 34.792C36.4642 34.8858 36.5385 34.9603 36.6322 34.9993C36.6792 35.0187 36.7291 35.0285 36.7789 35.0285C36.8286 35.0285 36.8782 35.0188 36.925 34.9995L42.848 32.5522L47.5705 35.2289C47.6301 35.2626 47.6949 35.2786 47.7588 35.2786C47.892 35.2786 48.0215 35.2089 48.0919 35.0847L52.4301 27.4308L54.2271 28.4492C54.2251 28.6123 54.2438 28.7765 54.2846 28.9379L54.6443 30.3603C54.8065 31.0014 55.2786 31.506 55.9072 31.7102C56.4157 31.8754 57.0236 32.077 57.2737 32.1601L62.1253 38.831C62.7996 39.7582 62.9682 40.955 62.5764 42.0324L60.5778 47.5287ZM60.1765 49.0491C60.0536 50.4461 59.0054 51.5806 57.5937 51.7978L52.6602 52.5568L53.2448 49.0491H60.1765ZM58.8328 45.989H54.659C53.7513 44.5742 53.1469 42.9549 52.9093 41.2917L52.7795 40.3828C52.6358 39.3776 52.8944 38.3738 53.5075 37.5564L53.5359 37.5185C54.2287 36.5948 55.3317 36.0433 56.4863 36.0433H56.9482C58.1387 36.0432 59.2759 36.6118 59.9902 37.5642C60.5995 38.3766 60.8559 39.3776 60.7123 40.3828L60.5824 41.2917C60.3449 42.9549 59.7404 44.5742 58.8328 45.989ZM54.8333 46.754H58.6584V48.2841H54.8333V46.754ZM46.418 48.453C45.2358 49.1543 43.7749 49.1543 42.5928 48.453V47.025C43.1993 47.3092 43.8523 47.4514 44.5054 47.4514C45.1584 47.4514 45.8115 47.3092 46.418 47.025V48.453ZM46.6294 46.0294C46.6151 46.0366 46.6016 46.0448 46.5885 46.0536L46.5883 46.0533C45.323 46.8968 43.6878 46.8968 42.4225 46.0533L42.4223 46.0536C42.4092 46.0448 42.3957 46.0366 42.3814 46.0294L41.2102 45.4438C40.3025 44.99 39.86 43.9217 40.1808 42.959L40.2781 42.6674C40.3239 42.5299 40.2881 42.3784 40.1857 42.2759C39.4911 41.5814 39.4911 40.4513 40.1857 39.7568C40.2761 39.6663 40.3154 39.5366 40.2903 39.4113L40.1144 38.5319C39.9917 37.9183 40.1489 37.2889 40.5455 36.805C40.9422 36.3211 41.5286 36.0436 42.1543 36.0436H42.9753C43.0768 36.0436 43.174 36.0033 43.2458 35.9316C43.9403 35.2371 45.0704 35.2371 45.7649 35.9316C45.8367 36.0033 45.934 36.0436 46.0354 36.0436H46.7063C47.3514 36.0436 47.949 36.3352 48.346 36.8437C48.743 37.3521 48.8809 38.0027 48.7245 38.6284C48.6983 38.733 48.7175 38.8437 48.7773 38.9334L49.1071 39.4281C49.6519 40.2454 49.4303 41.3535 48.613 41.8983L48.1184 42.2281C47.9426 42.3453 47.8951 42.5828 48.0123 42.7586C48.3387 43.2481 48.4393 43.8551 48.2882 44.4238C48.1372 44.9926 47.7487 45.4697 47.2224 45.7329L46.6294 46.0294ZM27.7015 41.9586C27.793 42.0057 27.8865 42.0515 27.9827 42.0955C28.3556 43.6148 28.8937 45.0943 29.5873 46.4964V48.2659C28.8586 48.1896 28.1832 47.8692 27.658 47.3439C26.9872 46.6731 26.7205 45.6865 26.9619 44.7691L27.7015 41.9586ZM30.3523 48.2841V46.754H34.1775V48.2841H30.3523ZM34.3366 45.989H30.1932C29.6413 44.8476 29.194 43.6555 28.8598 42.4323C29.8678 42.754 31.041 42.9289 32.2649 42.9289C33.5208 42.9289 34.683 42.7494 35.667 42.4353C35.3343 43.6574 34.8879 44.8486 34.3366 45.989ZM28.8223 49.0491H35.766L36.3505 52.5563L31.0927 51.7479C29.7771 51.5455 28.8223 50.4325 28.8223 49.1014V49.0491ZM44.4433 22.904L51.7645 27.0535L47.615 34.3747L40.2938 30.2252L44.4433 22.904ZM39.3115 28.2191L37.9249 27.2888C38.0987 27.1173 38.3055 26.9792 38.538 26.8831C39.3848 26.5333 40.3533 26.8415 40.8526 27.5823L39.3115 28.2191ZM37.4994 27.9245L38.4617 28.5702L37.3901 29.013C37.3193 28.65 37.3558 28.2743 37.4994 27.9245ZM38.7539 29.2772L38.5282 30.4129C38.1912 30.2713 37.8943 30.0343 37.6824 29.7199L38.7539 29.2772ZM39.6036 28.9261L40.318 28.6309L39.4396 30.1807C39.3896 30.269 39.3767 30.3735 39.4037 30.4712C39.412 30.5012 39.4249 30.5291 39.4399 30.5557C39.386 30.5606 39.3321 30.562 39.2785 30.5622L39.6036 28.9261ZM42.3393 25.0647L41.297 26.9037C40.5603 26.0503 39.3308 25.7279 38.2459 26.1761C37.5848 26.4492 37.0697 26.9634 36.7955 27.6239C36.5212 28.2845 36.5205 29.0123 36.7937 29.6733C37.2198 30.7045 38.2197 31.3284 39.2719 31.3284C39.6119 31.3284 39.9576 31.2632 40.2909 31.1255C40.2984 31.1224 40.3058 31.1187 40.3133 31.1155L42.0033 32.0734L36.9864 34.1464L33.7727 26.3688L39.4019 24.0429L41.5503 23.1552L42.3393 25.0647ZM23.1348 43.6052L27.2726 31.1919C27.2987 31.1134 27.2987 31.0285 27.2726 30.9499L26.7611 29.4154C26.642 29.0582 26.7058 28.6652 26.9317 28.364L27.9796 26.9668C28.3126 26.5228 28.9147 26.3808 29.4108 26.6289L30.483 27.165C30.8743 27.3606 31.1174 27.7539 31.1174 28.1914V29.6721C31.1174 29.9787 30.998 30.2668 30.7812 30.4836L29.6993 31.5655C29.6514 31.6134 29.6171 31.6731 29.5999 31.7386L26.2221 44.5744C26.135 44.9052 26.1011 45.2428 26.1139 45.5767L22.8813 47.1931C22.6678 46.0076 22.7461 44.7712 23.1348 43.6052ZM27.2922 64.3497V54.7869C27.2922 54.7084 27.2681 54.6318 27.223 54.5675L24.0757 50.0712C23.6205 49.421 23.2811 48.7057 23.0617 47.9582L26.2365 46.3708C26.393 46.9346 26.6914 47.4593 27.117 47.8849C27.4011 48.1689 27.7206 48.4045 28.0655 48.5878C28.0602 48.6133 28.0572 48.6396 28.0572 48.6666V49.1014C28.0572 50.8128 29.2849 52.2438 30.9764 52.504L38.691 53.6902L38.0804 56.6642L35.3662 56.3705L35.2839 57.1311L38.0026 57.4253V64.3497H27.2922ZM40.4481 53.9604C40.488 53.9665 40.5286 53.9664 40.5682 53.9598L44.5673 53.3031C44.6464 53.2901 44.7193 53.2527 44.7759 53.1961L46.0505 51.9215C46.1758 51.7961 46.3309 51.7003 46.4991 51.6442L47.3428 51.363C47.8324 51.1997 48.3742 51.3857 48.6605 51.8151L48.8465 52.0941C49.1489 52.5477 49.0886 53.1566 48.7032 53.5421L47.7432 54.5021C47.5264 54.7188 47.2382 54.8382 46.9317 54.8382H46.0354C46.005 54.8382 45.9746 54.8419 45.945 54.8491L38.8813 56.5676L39.4481 53.8067L40.4481 53.9604ZM38.7677 62.8197V57.3826L46.0813 55.6033H46.9317C47.4426 55.6033 47.9229 55.4043 48.2842 55.0431L49.2441 54.0831C49.8866 53.4406 49.987 52.4257 49.4831 51.6698L49.2971 51.3907C48.8199 50.6751 47.9169 50.3653 47.1009 50.6372L46.2571 50.9184C45.9769 51.0119 45.7184 51.1716 45.5095 51.3805L44.3219 52.5681L40.5043 53.195L37.1465 52.6787L36.5416 49.0491H42.0985C42.8359 49.5136 43.6705 49.7465 44.5054 49.7465C45.3402 49.7465 46.1748 49.5136 46.9123 49.0491H52.4691L51.8641 52.6792L50.5674 52.8787C50.3809 52.9074 50.2431 53.068 50.2431 53.2568V62.8197H38.7677ZM61.7382 56.1959C61.7252 56.235 61.7186 56.2758 61.7186 56.3169V64.3497H51.0081V53.585L57.7101 52.5539C59.5894 52.2648 60.9535 50.6748 60.9535 48.7732V48.6666C60.9535 48.5863 60.9286 48.5119 60.8863 48.4504C61.0635 48.2639 61.2055 48.0412 61.2968 47.7902L62.1071 45.5618L64.9092 46.6827L61.7382 56.1959ZM65.9677 43.5072L65.1516 45.9557L62.3686 44.8425L63.2954 42.2939C63.7743 40.977 63.5682 39.5143 62.744 38.3811L57.8202 31.611C57.7734 31.5465 57.7075 31.4983 57.6318 31.473C57.6318 31.473 56.8042 31.1972 56.1435 30.9826C55.7665 30.8601 55.4833 30.5573 55.386 30.1727L55.0263 28.7503C54.9271 28.3582 55.0441 27.9378 55.3316 27.6533L56.0767 26.916C56.4778 26.5191 57.1208 26.475 57.5723 26.8137L58.9645 27.8578C59.2519 28.0734 59.4235 28.4166 59.4235 28.7758V30.3059C59.4235 30.3903 59.4514 30.4723 59.5028 30.5391L64.9828 37.6631C66.2641 39.3289 66.6323 41.5136 65.9677 43.5072Z" fill="white"/>
<path d="M44.7089 30.9687C45.1248 31.2044 45.5776 31.3163 46.0247 31.3163C46.9583 31.3163 47.8664 30.8281 48.3587 29.9595C49.0867 28.6751 48.634 27.0378 47.3495 26.3098C46.7273 25.9572 46.0049 25.8679 45.3156 26.0584C44.6262 26.249 44.0524 26.6967 43.6997 27.3189C42.9717 28.6034 43.4244 30.2407 44.7089 30.9687ZM44.2102 28.0479L45.6624 28.871L45.783 30.5348C45.5445 30.5042 45.3079 30.4288 45.0861 30.3031C44.2826 29.8477 43.9349 28.8941 44.2102 28.0479ZM47.8482 29.2305L46.8396 28.6589L47.8734 28.1374C47.9694 28.4901 47.9655 28.87 47.8482 29.2305ZM46.5461 30.4793L46.4623 29.3244L47.4709 29.8961C47.2219 30.1819 46.898 30.3805 46.5461 30.4793ZM46.0324 26.727C46.3517 26.727 46.6752 26.807 46.9722 26.9754C47.194 27.1011 47.3803 27.2654 47.5291 27.4543L46.0397 28.2055L44.5875 27.3825C44.956 26.9596 45.488 26.727 46.0324 26.727Z" fill="white"/>
</svg>
