<svg width="90" height="90" viewBox="0 0 90 90" fill="none" xmlns="http://www.w3.org/2000/svg">
<circle cx="45" cy="45" r="45" fill="#023347"/>
<path d="M65.8374 71.4013C65.9215 71.4013 66.0048 71.3848 66.0825 71.3525C66.1602 71.3203 66.2307 71.2731 66.2902 71.2136C66.3496 71.154 66.3967 71.0834 66.4288 71.0056C66.4608 70.9279 66.4773 70.8446 66.4771 70.7605V33.5455C66.4771 33.3758 66.4097 33.2131 66.2898 33.0931C66.1698 32.9732 66.0071 32.9058 65.8374 32.9058H58.5927C58.4231 32.9058 58.2604 32.9732 58.1404 33.0931C58.0204 33.2131 57.953 33.3758 57.953 33.5455V70.7605C57.9529 70.8446 57.9693 70.9279 58.0014 71.0056C58.0335 71.0834 58.0806 71.154 58.14 71.2136C58.1994 71.2731 58.27 71.3203 58.3477 71.3525C58.4253 71.3848 58.5086 71.4013 58.5927 71.4013H65.8374ZM59.2325 34.1852H65.1999V70.1207H59.2325V34.1852Z" fill="white"/>
<path d="M46.3632 71.4014C46.5332 71.4014 46.6962 71.3338 46.8164 71.2137C46.9366 71.0935 47.0041 70.9305 47.0041 70.7605V52.4729C47.0041 52.3888 46.9875 52.3055 46.9553 52.2278C46.9231 52.1501 46.8759 52.0795 46.8163 52.0201C46.7568 51.9607 46.6862 51.9136 46.6084 51.8815C46.5307 51.8494 46.4474 51.833 46.3632 51.8331H39.1163C38.9466 51.8331 38.7839 51.9005 38.6639 52.0205C38.544 52.1405 38.4766 52.3032 38.4766 52.4729V70.7605C38.4764 70.8446 38.4928 70.9279 38.5249 71.0056C38.557 71.0834 38.6041 71.1541 38.6635 71.2136C38.723 71.2731 38.7935 71.3203 38.8712 71.3526C38.9489 71.3848 39.0322 71.4014 39.1163 71.4014H46.3632ZM39.7572 53.1115H45.7189V70.1207H39.7572V53.1115Z" fill="white"/>
<path d="M19.6409 71.4013H26.8878C26.972 71.4013 27.0552 71.3847 27.1329 71.3525C27.2106 71.3202 27.2812 71.273 27.3406 71.2135C27.4 71.154 27.4471 71.0833 27.4792 71.0055C27.5113 70.9278 27.5277 70.8445 27.5276 70.7604V62.6983C27.5282 62.6139 27.5121 62.5302 27.4802 62.4521C27.4483 62.3739 27.4013 62.3028 27.3418 62.243C27.2824 62.1831 27.2116 62.1355 27.1337 62.1031C27.0558 62.0707 26.9722 62.054 26.8878 62.054H19.6409C19.5568 62.0538 19.4735 62.0702 19.3957 62.1023C19.318 62.1344 19.2473 62.1815 19.1878 62.2409C19.1283 62.3003 19.081 62.3709 19.0488 62.4486C19.0166 62.5263 19 62.6096 19 62.6937V70.7558C18.9994 70.8403 19.0155 70.9242 19.0475 71.0025C19.0794 71.0807 19.1265 71.1519 19.1861 71.2119C19.2457 71.2719 19.3165 71.3195 19.3946 71.352C19.4726 71.3845 19.5564 71.4013 19.6409 71.4013ZM20.2806 63.338H26.2424V70.1206H20.2806V63.338Z" fill="white"/>
<path d="M68.714 19H55.7186C55.3711 19 55.027 19.0684 54.706 19.2014C54.3849 19.3344 54.0932 19.5293 53.8475 19.775C53.6018 20.0207 53.4069 20.3124 53.2739 20.6335C53.141 20.9545 53.0725 21.2986 53.0725 21.6461C53.0725 21.9936 53.141 22.3377 53.2739 22.6587C53.4069 22.9797 53.6018 23.2714 53.8475 23.5172C54.0932 23.7629 54.3849 23.9578 54.706 24.0908C55.027 24.2237 55.3711 24.2922 55.7186 24.2922H56.0625C56.2322 24.2922 56.3949 24.2248 56.5149 24.1048C56.6349 23.9848 56.7023 23.8221 56.7023 23.6524C56.7023 23.4828 56.6349 23.3201 56.5149 23.2001C56.3949 23.0801 56.2322 23.0127 56.0625 23.0127H55.7186C55.5359 23.018 55.354 22.9866 55.1836 22.9203C55.0132 22.854 54.8579 22.7543 54.7268 22.6269C54.5957 22.4995 54.4914 22.3471 54.4203 22.1788C54.3491 22.0104 54.3124 21.8295 54.3124 21.6467C54.3124 21.4639 54.3491 21.2829 54.4203 21.1146C54.4914 20.9462 54.5957 20.7938 54.7268 20.6664C54.8579 20.5391 55.0132 20.4393 55.1836 20.373C55.354 20.3067 55.5359 20.2753 55.7186 20.2806H57.9531V24.0778C57.9543 25.0938 58.321 26.0756 58.9862 26.8436C59.6513 27.6117 60.5705 28.1149 61.576 28.2613V30.7962C61.5723 30.8826 61.5862 30.9688 61.6167 31.0497C61.6473 31.1305 61.6938 31.2044 61.7537 31.2668C61.8135 31.3292 61.8853 31.3789 61.9648 31.4128C62.0443 31.4467 62.1299 31.4642 62.2163 31.4642C62.3028 31.4642 62.3883 31.4467 62.4678 31.4128C62.5473 31.3789 62.6192 31.3292 62.679 31.2668C62.7388 31.2044 62.7854 31.1305 62.8159 31.0497C62.8464 30.9688 62.8603 30.8826 62.8566 30.7962V28.2613C63.8621 28.1149 64.7813 27.6117 65.4465 26.8436C66.1116 26.0756 66.4783 25.0938 66.4795 24.0778V20.2806H68.714C68.8967 20.2753 69.0787 20.3067 69.249 20.373C69.4194 20.4393 69.5747 20.5391 69.7058 20.6664C69.837 20.7938 69.9412 20.9462 70.0124 21.1146C70.0835 21.2829 70.1202 21.4639 70.1202 21.6467C70.1202 21.8295 70.0835 22.0104 70.0124 22.1788C69.9412 22.3471 69.837 22.4995 69.7058 22.6269C69.5747 22.7543 69.4194 22.854 69.249 22.9203C69.0787 22.9866 68.8967 23.018 68.714 23.0127H68.3701C68.2004 23.0127 68.0377 23.0801 67.9177 23.2001C67.7977 23.3201 67.7303 23.4828 67.7303 23.6524C67.7303 23.8221 67.7977 23.9848 67.9177 24.1048C68.0377 24.2248 68.2004 24.2922 68.3701 24.2922H68.714C69.0615 24.2922 69.4056 24.2237 69.7266 24.0908C70.0477 23.9578 70.3394 23.7629 70.5851 23.5172C70.8308 23.2714 71.0257 22.9797 71.1587 22.6587C71.2917 22.3377 71.3601 21.9936 71.3601 21.6461C71.3601 21.2986 71.2917 20.9545 71.1587 20.6335C71.0257 20.3124 70.8308 20.0207 70.5851 19.775C70.3394 19.5293 70.0477 19.3344 69.7266 19.2014C69.4056 19.0684 69.0615 19 68.714 19ZM65.2 24.0778C65.1991 24.8593 64.8883 25.6085 64.3357 26.1611C63.7831 26.7137 63.0339 27.0245 62.2524 27.0254H62.1802C61.3987 27.0245 60.6495 26.7137 60.0969 26.1611C59.5443 25.6085 59.2335 24.8593 59.2326 24.0778V20.2806H65.2V24.0778Z" fill="white"/>
<path d="M22.3236 56.6414C22.4077 56.6417 22.491 56.6253 22.5687 56.5932C22.6465 56.5611 22.7171 56.514 22.7765 56.4545L34.9969 44.2387C35.4372 43.7998 36.0336 43.5534 36.6553 43.5534C37.277 43.5534 37.8734 43.7998 38.3137 44.2387C38.9929 44.916 39.9126 45.2969 40.8718 45.2982C41.831 45.2995 42.7517 44.9211 43.4327 44.2456L49.1893 38.5223C49.2042 38.5074 49.2168 38.4891 49.2305 38.473C49.2443 38.457 49.2592 38.4409 49.2707 38.4237C49.2821 38.4065 49.2936 38.3813 49.3039 38.3607C49.3142 38.34 49.3223 38.3286 49.3291 38.3125C49.3385 38.2875 49.3462 38.2618 49.3521 38.2357C49.3521 38.222 49.3612 38.2082 49.3647 38.1933C49.3681 38.1784 49.3704 38.1394 49.3727 38.1119C49.375 38.0844 49.3727 38.0855 49.3727 38.0718C49.3721 38.0449 49.3698 38.0181 49.3658 37.9915C49.3658 37.9777 49.3658 37.9628 49.3658 37.9491C49.3603 37.9241 49.353 37.8996 49.344 37.8757C49.344 37.8608 49.3372 37.8448 49.3314 37.831C49.3215 37.8094 49.3104 37.7883 49.2982 37.7679C49.2907 37.7511 49.2823 37.7346 49.2729 37.7186C49.2603 37.7014 49.2454 37.6854 49.2317 37.6682C49.2192 37.651 49.2058 37.6346 49.1915 37.6189L47.7928 36.2236L51.598 35.2021L50.5719 39.0233C50.4393 38.9334 50.2777 38.8965 50.1191 38.9199C49.9606 38.9434 49.8166 39.0255 49.7157 39.1501C49.6148 39.2746 49.5644 39.4325 49.5743 39.5924C49.5842 39.7524 49.6539 39.9028 49.7694 40.0139L50.4515 40.7018C50.511 40.7612 50.5816 40.8083 50.6593 40.8404C50.7371 40.8725 50.8203 40.8889 50.9044 40.8887C50.9602 40.8888 51.0157 40.8815 51.0695 40.8669C51.178 40.838 51.2769 40.781 51.3564 40.7017C51.4359 40.6224 51.4932 40.5236 51.5224 40.4152L53.1183 34.4684C53.1475 34.3598 53.1477 34.2454 53.1186 34.1367C53.0896 34.0281 53.0325 33.929 52.9529 33.8495C52.8734 33.77 52.7743 33.7128 52.6657 33.6838C52.557 33.6548 52.4427 33.6549 52.3341 33.6842L46.3872 35.2801C46.2787 35.3091 46.1797 35.3662 46.1002 35.4457C46.0208 35.5251 45.9636 35.6241 45.9346 35.7327C45.9055 35.8412 45.9056 35.9555 45.9347 36.064C45.9639 36.1726 46.0211 36.2715 46.1006 36.3509L47.8204 38.0706L42.519 43.3445C42.0787 43.7817 41.4834 44.027 40.8629 44.027C40.2424 44.027 39.6471 43.7817 39.2068 43.3445C38.5267 42.6654 37.6049 42.284 36.6438 42.284C35.6828 42.284 34.761 42.6654 34.0809 43.3445L21.8708 55.5488C21.7807 55.6386 21.7195 55.7532 21.6949 55.878C21.6703 56.0028 21.6835 56.132 21.7327 56.2493C21.7819 56.3666 21.865 56.4665 21.9713 56.5363C22.0775 56.6062 22.2022 56.6428 22.3294 56.6414H22.3236Z" fill="white"/>
</svg>
