<svg width="90" height="90" viewBox="0 0 90 90" fill="none" xmlns="http://www.w3.org/2000/svg">
<circle cx="45" cy="45" r="45" fill="#023347"/>
<path d="M71.9497 38.9356L63.9784 19.4081C63.9457 19.3276 63.8978 19.2546 63.8375 19.1931C63.7771 19.1316 63.7055 19.0829 63.6267 19.0497C63.5479 19.0166 63.4635 18.9997 63.3783 19C63.2932 19.0003 63.2089 19.0178 63.1303 19.0515L56.3829 21.9322C56.3043 21.9656 56.2328 22.0146 56.1727 22.0763C56.1126 22.1381 56.065 22.2113 56.0326 22.2919C56.0002 22.3725 55.9837 22.4588 55.984 22.546C55.9843 22.6331 56.0014 22.7193 56.0343 22.7997L56.5629 24.0944L31.4909 34.8059C31.4122 34.8393 31.3408 34.8883 31.2807 34.9501C31.2206 35.0118 31.1729 35.0851 31.1406 35.1657C31.1082 35.2462 31.0916 35.3326 31.0919 35.4197C31.0922 35.5068 31.1093 35.5931 31.1423 35.6734L32.0376 37.8667L24.6762 41.0123L24.3764 40.2772C24.3437 40.1968 24.2958 40.1237 24.2355 40.0622C24.1751 40.0007 24.1035 39.952 24.0247 39.9189C23.946 39.8858 23.8615 39.8689 23.7764 39.8692C23.6912 39.8695 23.6069 39.8869 23.5283 39.9206L19.9072 41.4673C19.8285 41.5007 19.7571 41.5497 19.697 41.6114C19.6369 41.6732 19.5892 41.7464 19.5569 41.827C19.5245 41.9076 19.5079 41.9939 19.5082 42.0811C19.5085 42.1682 19.5256 42.2544 19.5586 42.3348L20.751 45.2572L17.3986 46.6919C17.32 46.7254 17.2486 46.7744 17.1885 46.8361C17.1285 46.8978 17.0809 46.9711 17.0486 47.0516C17.0162 47.1322 16.9997 47.2185 17 47.3055C17.0003 47.3926 17.0174 47.4788 17.0503 47.5591L19.3877 53.2824C19.4368 53.4033 19.5198 53.5065 19.6263 53.5791C19.7328 53.6517 19.8579 53.6904 19.9858 53.6904C20.0718 53.6904 20.1569 53.6729 20.2361 53.6387L23.5873 52.2046L24.781 55.1294C24.8137 55.2098 24.8616 55.2829 24.922 55.3444C24.9823 55.4059 25.0539 55.4546 25.1327 55.4877C25.2115 55.5209 25.2959 55.5378 25.3811 55.5375C25.4663 55.5372 25.5506 55.5197 25.6291 55.486L29.2496 53.9394C29.3283 53.9059 29.3997 53.8569 29.4597 53.7951C29.5198 53.7334 29.5674 53.6601 29.5998 53.5795C29.6321 53.4989 29.6486 53.4126 29.6483 53.3255C29.648 53.2384 29.6309 53.1522 29.5979 53.0718L29.2985 52.3381L31.4951 51.4C31.5567 53.041 32.1976 54.6036 33.299 55.7982L28.4983 67.5743H26.7106C26.5389 67.5743 26.3742 67.6441 26.2528 67.7683C26.1314 67.8925 26.0632 68.0609 26.0632 68.2365V71.3378C26.0632 71.5134 26.1314 71.6818 26.2528 71.806C26.3742 71.9302 26.5389 72 26.7106 72H35.2707C35.4423 72 35.607 71.9302 35.7284 71.806C35.8498 71.6818 35.918 71.5134 35.918 71.3378V68.2365C35.918 68.0609 35.8498 67.8925 35.7284 67.7683C35.607 67.6441 35.4423 67.5743 35.2707 67.5743H33.5726L37.5058 57.9217C37.7187 57.9429 37.9343 57.9548 38.1531 57.9548C38.621 57.9544 39.0875 57.9037 39.545 57.8035L43.5274 67.5743H42.0061C41.8344 67.5743 41.6697 67.6441 41.5483 67.7683C41.4269 67.8925 41.3587 68.0609 41.3587 68.2365V71.3378C41.3587 71.5134 41.4269 71.6818 41.5483 71.806C41.6697 71.9302 41.8344 72 42.0061 72H50.5665C50.7382 72 50.9028 71.9302 51.0242 71.806C51.1456 71.6818 51.2139 71.5134 51.2139 71.3378V68.2365C51.2139 68.0609 51.1456 67.8925 51.0242 67.7683C50.9028 67.6441 50.7382 67.5743 50.5665 67.5743H48.5987L43.5345 55.1463C44.1485 54.2919 44.5583 53.3022 44.731 52.2566C44.9037 51.211 44.8345 50.1386 44.5289 49.1253L63.476 41.0312L64.0056 42.3285C64.0548 42.4494 64.138 42.5526 64.2446 42.6252C64.3512 42.6978 64.4764 42.7363 64.6044 42.7361C64.69 42.7362 64.7748 42.7187 64.8537 42.6848L71.6011 39.8041C71.6797 39.7706 71.7511 39.7217 71.8113 39.6599C71.8714 39.5982 71.919 39.5249 71.9514 39.4443C71.9838 39.3637 72.0003 39.2774 72 39.1903C71.9997 39.1031 71.9826 39.0169 71.9497 38.9366V38.9356ZM20.3341 52.1586L18.4968 47.6588L21.2508 46.4803L23.0875 50.9805L20.3341 52.1586ZM25.7278 54.0056L24.5428 51.1024C24.5399 51.0948 24.5389 51.0871 24.536 51.0795C24.5331 51.0719 24.5282 51.0659 24.525 51.0587L22.2025 45.3695C22.2025 45.3651 22.2005 45.3605 22.1986 45.3559C22.1967 45.3512 22.1938 45.3479 22.1918 45.3433L21.0051 42.4358L23.429 41.4004L23.7268 42.1288L23.7287 42.1355L23.731 42.1394L27.8399 52.2046C27.8435 52.2156 27.8451 52.2268 27.8497 52.2378C27.8542 52.2487 27.8581 52.2503 27.8613 52.2573L28.1526 52.9705L25.7278 54.0056ZM25.1756 42.2371L32.5371 39.0915L34.9971 45.1208C34.1137 45.6083 33.349 46.2931 32.7596 47.1242C32.1702 47.9554 31.7713 48.9116 31.5925 49.9219L28.7981 51.114L25.1756 42.2371ZM34.6223 70.6749H27.3589V68.8988H28.9201C28.9233 68.8988 28.9266 68.8988 28.9298 68.8988H28.9363H32.5898C32.5931 68.8988 32.5963 68.8988 32.5995 68.8988H32.606H34.6223V70.6749ZM32.168 67.5743H29.9022L34.33 56.7138C34.9032 57.1275 35.5368 57.4457 36.2074 57.6564L32.168 67.5743ZM32.7785 51.1312C32.7785 50.0441 33.0937 48.9814 33.6841 48.0775C34.2745 47.1736 35.1137 46.4691 36.0956 46.0531C37.0774 45.6371 38.1578 45.5282 39.2001 45.7403C40.2425 45.9524 41.1999 46.4759 41.9514 47.2446C42.7028 48.0133 43.2146 48.9926 43.4219 50.0589C43.6292 51.1251 43.5228 52.2302 43.1161 53.2346C42.7094 54.2389 42.0207 55.0974 41.1371 55.7013C40.2535 56.3053 39.2146 56.6277 38.1518 56.6277C36.7272 56.6257 35.3615 56.0459 34.3542 55.0154C33.3469 53.9849 32.7802 52.5878 32.7785 51.1305V51.1312ZM49.9181 70.6755H42.6544V68.8988H44.4943H44.5008C44.504 68.8988 44.5072 68.8988 44.5105 68.8988H48.1608H48.1673C48.1705 68.8988 48.1737 68.8988 48.177 68.8988H49.9181V70.6755ZM44.931 67.5743L40.7838 57.3995C41.4368 57.1094 42.0402 56.7143 42.5712 56.2293L47.1942 67.5743H44.931ZM44.0279 47.9018C43.2976 46.5093 42.1171 45.4195 40.6883 44.8186C39.2595 44.2177 37.6711 44.1431 36.1945 44.6076L32.5888 35.7744L57.0627 25.3198L62.9762 39.8071L44.0279 47.9018ZM64.9524 41.2054L64.4241 39.9107V39.9077V39.9054L58.0176 24.2106C58.0156 24.2056 58.0153 24.2003 58.013 24.1953C58.0108 24.1904 58.0079 24.1861 58.0056 24.1811L57.4832 22.9013L63.0339 20.5306L70.5028 38.8336L64.9524 41.2054Z" fill="white"/>
</svg>
