<svg width="136" height="143" viewBox="0 0 136 143" fill="none" xmlns="http://www.w3.org/2000/svg">
<path d="M3.57431 14.9249H13.3937V3.57431C13.3937 1.60008 14.9956 0 16.9698 0H95.8012C96.6702 0 97.4668 0.31036 98.0858 0.825902L133.839 26.3099C134.817 27.0048 135.338 28.1014 135.338 29.2135L135.348 124.501C135.348 126.475 133.746 128.075 131.774 128.075H121.954V139.426C121.954 141.4 120.352 143 118.378 143H3.57431C1.6018 143 0 141.4 0 139.426V18.4992C0 16.5249 1.6018 14.9249 3.57431 14.9249ZM20.5441 14.9249H82.4074C83.2747 14.9249 84.0713 15.2352 84.692 15.7508L120.226 41.0778C121.261 41.7037 121.954 42.8417 121.954 44.1383V120.927H128.198V31.0446L94.6753 7.14862H20.5441V14.9249ZM21.7528 84.642C17.0508 84.642 17.0508 77.4917 21.7528 77.4917H46.2436C50.9456 77.4917 50.9456 84.642 46.2436 84.642H21.7528ZM21.7528 123.292C17.0508 123.292 17.0508 116.142 21.7528 116.142H46.2436C50.9456 116.142 50.9456 123.292 46.2436 123.292H21.7528ZM21.7528 97.5254C17.0508 97.5254 17.0508 90.375 21.7528 90.375H46.2436C50.9456 90.375 50.9456 97.5254 46.2436 97.5254H21.7528ZM21.7528 110.409C17.0508 110.409 17.0508 103.258 21.7528 103.258H46.2436C50.9456 103.258 50.9456 110.409 46.2436 110.409H21.7528ZM83.5902 93.1286V120.101C83.5902 124.803 76.4399 124.803 76.4399 120.101V93.1286C66.7722 91.413 59.6977 82.9712 59.6977 73.1259C59.6977 61.9064 68.7947 52.8094 80.0159 52.8094C91.2354 52.8094 100.332 61.9047 100.332 73.1259C100.332 82.9695 93.2597 91.413 83.5902 93.1286ZM80.0159 59.9581C72.7432 59.9581 66.8481 65.8532 66.8481 73.1259C66.8481 80.3987 72.7432 86.2938 80.0159 86.2938C87.287 86.2938 93.1821 80.3987 93.1821 73.1259C93.1821 65.8532 87.287 59.9581 80.0159 59.9581ZM21.5614 31.7619H46.435C48.4092 31.7619 50.0093 33.362 50.0093 35.3362V64.6117C50.0093 66.586 48.4092 68.186 46.435 68.186H21.5614C19.5872 68.186 17.9853 66.586 17.9853 64.6117V35.3362C17.9853 33.362 19.5872 31.7619 21.5614 31.7619ZM42.8607 38.9105H25.1357V61.0357H42.8607V38.9105ZM81.2798 22.0735H7.15034V135.851H114.804V45.9695L81.2798 22.0735Z" fill="#023347"/>
</svg>
