<svg width="106" height="104" viewBox="0 0 106 104" fill="none" xmlns="http://www.w3.org/2000/svg">
<path d="M103.374 8.80562H97.5399V2.87547C97.5399 1.39294 96.373 0.206909 94.9144 0.206909C93.4558 0.206909 92.2889 1.39294 92.2889 2.87547V8.80562H86.4544C84.9958 8.80562 83.8289 9.99164 83.8289 11.4742C83.8289 12.9567 84.9958 14.1427 86.4544 14.1427H92.2889V20.0729C92.2889 21.5554 93.4558 22.7415 94.9144 22.7415C96.373 22.7415 97.5399 21.5554 97.5399 20.0729V14.0834H103.374C104.833 14.0834 106 12.8974 106 11.4149C106 9.93234 104.833 8.74631 103.374 8.74631V8.80562Z" fill="white"/>
<path d="M79.0238 52.119C87.5816 45.4514 89.1056 33.1104 82.4234 24.5712C78.7893 19.8922 73.2208 17.1432 67.3007 17.0263C62.4942 17.0263 57.8636 18.8394 54.3467 22.1147C48.1335 10.5926 33.7727 6.29372 22.2255 12.4934C10.6783 18.6932 6.37005 33.0227 12.5833 44.5156C14.4883 48.0249 17.2432 51.037 20.6136 53.201C9.00774 56.5933 0.596436 66.3023 0.596436 77.766V101.161C0.596436 102.623 1.76874 103.793 3.23413 103.793H64.4285C65.8939 103.793 67.0662 102.623 67.0662 101.161V96.4236H92.095C93.5604 96.4236 94.7327 95.2539 94.7327 93.7917V73.4671C94.6154 63.7289 88.285 55.1604 79.0238 52.119ZM67.3007 22.1439C75.2431 21.9977 81.7787 28.2559 81.9545 36.181C82.1011 44.1062 75.8292 50.6276 67.8868 50.803C62.6408 50.92 57.7464 48.1418 55.138 43.609L55.2845 43.1996C55.519 42.7025 55.7242 42.2053 55.9293 41.7082C56.1345 41.211 56.3103 40.5384 56.4862 39.9535C56.662 39.3686 56.6327 39.4856 56.6913 39.2224C57.1895 37.3508 57.4533 35.45 57.4533 33.5198C57.4533 32.2624 57.4533 31.0634 57.2775 29.8351C57.1602 29.0748 57.0137 28.3144 56.8085 27.5833C56.8085 27.5833 56.8085 27.3494 56.8085 27.2616C59.4169 24.0448 63.3148 22.1732 67.4472 22.1439H67.3007ZM51.6211 55.0434C50.0971 54.3416 48.5438 53.7567 46.9319 53.318C48.9248 52.002 50.7126 50.3936 52.2072 48.522C53.3502 50.0134 54.7277 51.3002 56.281 52.3822C54.6984 53.0841 53.233 54.0199 51.9142 55.1019L51.6211 55.0434ZM15.2503 33.5198C15.221 23.3722 23.4857 15.1254 33.6555 15.0961C41.5392 15.0961 48.5731 20.0676 51.1229 27.5248C51.8262 29.4549 52.1779 31.4728 52.1779 33.5198C52.1486 35.5084 51.8262 37.497 51.1815 39.3686C48.8662 46.2117 42.2133 51.8851 34.7106 51.8851H32.5418C22.841 51.2709 15.2503 43.2288 15.2503 33.5198ZM61.7908 98.6462H5.87182V77.766C5.87182 73.4963 7.45443 69.3437 10.1507 66.0391C12.9936 62.5591 16.9208 60.0441 21.1997 58.6404C23.8081 57.7923 26.563 57.4414 29.2886 57.3244C32.1022 57.2075 35.0036 57.032 37.8172 57.2659C39.2826 57.3829 40.7479 57.6754 42.184 57.9678C43.708 58.2895 45.2027 58.6697 46.6681 59.1083C47.4008 59.313 48.1042 59.5762 48.8369 59.8102C50.947 60.5413 52.8227 61.6233 54.6105 62.9685C55.7242 63.8166 56.5448 64.8109 57.5119 65.7759C58.3032 66.5655 58.9187 67.7353 59.3876 68.7296C60.1496 70.2795 60.5013 71.9757 60.8823 73.6426C61.5271 76.5377 61.8202 79.4621 61.8202 82.445C61.8202 84.4336 61.8202 86.4222 61.8202 88.4108C61.8202 91.7738 61.8202 95.1076 61.8202 98.4707C61.8202 98.5584 61.8202 98.6754 61.8202 98.7631L61.7908 98.6462ZM89.4573 91.1597H67.0662V77.766C67.0662 77.766 67.0662 77.5905 67.0662 77.5028C67.0662 77.415 67.0662 76.9764 67.0662 76.6839C66.7731 72.0926 65.2785 67.6476 62.758 63.8166C62.6115 63.6119 62.4356 63.4072 62.2891 63.1732C61.7615 62.4714 61.2047 61.7695 60.6185 61.1262L60.472 60.9507C59.4462 59.8394 58.2739 58.8159 57.0137 57.9678C59.329 56.5933 61.9667 55.9207 64.663 56.0669H71.1693C81.0167 55.8622 89.1935 63.6411 89.4573 73.4671V91.1597Z" fill="white"/>
</svg>
