<svg width="236" height="235" viewBox="0 0 236 235" fill="none" xmlns="http://www.w3.org/2000/svg">
<circle cx="117.76" cy="117.5" r="111" fill="#00202D" stroke="#1B93A6" stroke-width="13"/>
<path d="M168.374 73.8056H162.54V67.8755C162.54 66.3929 161.373 65.2069 159.914 65.2069C158.456 65.2069 157.289 66.3929 157.289 67.8755V73.8056H151.454C149.996 73.8056 148.829 74.9916 148.829 76.4742C148.829 77.9567 149.996 79.1427 151.454 79.1427H157.289V85.0729C157.289 86.5554 158.456 87.7415 159.914 87.7415C161.373 87.7415 162.54 86.5554 162.54 85.0729V79.0834H168.374C169.833 79.0834 171 77.8974 171 76.4149C171 74.9323 169.833 73.7463 168.374 73.7463V73.8056Z" fill="white"/>
<path d="M144.024 117.119C152.582 110.451 154.106 98.1104 147.423 89.5712C143.789 84.8922 138.221 82.1432 132.301 82.0263C127.494 82.0263 122.864 83.8394 119.347 87.1147C113.133 75.5926 98.7727 71.2937 87.2255 77.4934C75.6783 83.6932 71.37 98.0227 77.5833 109.516C79.4883 113.025 82.2432 116.037 85.6136 118.201C74.0077 121.593 65.5964 131.302 65.5964 142.766V166.161C65.5964 167.623 66.7687 168.793 68.2341 168.793H129.429C130.894 168.793 132.066 167.623 132.066 166.161V161.424H157.095C158.56 161.424 159.733 160.254 159.733 158.792V138.467C159.615 128.729 153.285 120.16 144.024 117.119ZM132.301 87.1439C140.243 86.9977 146.779 93.2559 146.955 101.181C147.101 109.106 140.829 115.628 132.887 115.803C127.641 115.92 122.746 113.142 120.138 108.609L120.285 108.2C120.519 107.702 120.724 107.205 120.929 106.708C121.134 106.211 121.31 105.538 121.486 104.954C121.662 104.369 121.633 104.486 121.691 104.222C122.19 102.351 122.453 100.45 122.453 98.5198C122.453 97.2624 122.453 96.0634 122.277 94.8351C122.16 94.0748 122.014 93.3144 121.809 92.5833C121.809 92.5833 121.809 92.3494 121.809 92.2616C124.417 89.0448 128.315 87.1732 132.447 87.1439H132.301ZM116.621 120.043C115.097 119.342 113.544 118.757 111.932 118.318C113.925 117.002 115.713 115.394 117.207 113.522C118.35 115.013 119.728 116.3 121.281 117.382C119.698 118.084 118.233 119.02 116.914 120.102L116.621 120.043ZM80.2503 98.5198C80.221 88.3722 88.4857 80.1254 98.6555 80.0962C106.539 80.0962 113.573 85.0676 116.123 92.5248C116.826 94.4549 117.178 96.4728 117.178 98.5198C117.149 100.508 116.826 102.497 116.181 104.369C113.866 111.212 107.213 116.885 99.7106 116.885H97.5418C87.841 116.271 80.2503 108.229 80.2503 98.5198ZM126.791 163.646H70.8718V142.766C70.8718 138.496 72.4544 134.344 75.1507 131.039C77.9936 127.559 81.9208 125.044 86.1997 123.64C88.8081 122.792 91.563 122.441 94.2886 122.324C97.1022 122.207 100.004 122.032 102.817 122.266C104.283 122.383 105.748 122.675 107.184 122.968C108.708 123.289 110.203 123.67 111.668 124.108C112.401 124.313 113.104 124.576 113.837 124.81C115.947 125.541 117.823 126.623 119.61 127.969C120.724 128.817 121.545 129.811 122.512 130.776C123.303 131.566 123.919 132.735 124.388 133.73C125.15 135.28 125.501 136.976 125.882 138.643C126.527 141.538 126.82 144.462 126.82 147.445C126.82 149.434 126.82 151.422 126.82 153.411C126.82 156.774 126.82 160.108 126.82 163.471C126.82 163.558 126.82 163.675 126.82 163.763L126.791 163.646ZM154.457 156.16H132.066V142.766C132.066 142.766 132.066 142.591 132.066 142.503C132.066 142.415 132.066 141.976 132.066 141.684C131.773 137.093 130.278 132.648 127.758 128.817C127.611 128.612 127.436 128.407 127.289 128.173C126.762 127.471 126.205 126.77 125.619 126.126L125.472 125.951C124.446 124.839 123.274 123.816 122.014 122.968C124.329 121.593 126.967 120.921 129.663 121.067H136.169C146.017 120.862 154.194 128.641 154.457 138.467V156.16Z" fill="white"/>
</svg>
