<svg width="107" height="119" viewBox="0 0 107 119" fill="none" xmlns="http://www.w3.org/2000/svg">
<path d="M74.3018 26.0056C74.3018 11.6431 62.6587 0 48.2962 0C33.9337 0 22.2905 11.6431 22.2905 26.0056C22.2905 40.3682 33.9337 52.0113 48.2962 52.0113C62.6587 52.0113 74.3018 40.3682 74.3018 26.0056ZM29.7207 26.0056C29.7207 15.7467 38.0372 7.43018 48.2962 7.43018C58.5551 7.43018 66.8716 15.7467 66.8716 26.0056C66.8716 36.2646 58.5551 44.5811 48.2962 44.5811C38.0372 44.5811 29.7207 36.2646 29.7207 26.0056ZM48.3022 52.0113C21.6777 52.0113 0 72.825 0 98.5274V115.168C0 117.22 1.6633 118.883 3.71509 118.883C5.76688 118.883 7.43018 117.22 7.43018 115.168V98.5274C7.43018 76.9977 25.7152 59.4415 48.3022 59.4415C53.2087 59.4415 57.9906 60.2672 62.4891 61.8601C64.4232 62.545 66.5463 61.5323 67.2312 59.5982C67.9161 57.6641 66.9033 55.541 64.9692 54.8561C59.6762 52.9818 54.0557 52.0113 48.3022 52.0113Z" fill="white"/>
<path fill-rule="evenodd" clip-rule="evenodd" d="M66.9058 107.175L99.7344 74.3468C101.161 72.9202 103.516 72.9174 104.967 74.3682C106.428 75.8291 106.421 78.1683 104.974 79.6154L68.3264 116.263C66.8702 117.719 64.53 117.707 63.0792 116.256C63.0382 116.215 63.0279 116.205 63.0176 116.194L49.943 103.12C48.4916 101.668 48.4935 99.3181 49.9443 97.8672C51.4053 96.4063 53.7469 96.4158 55.197 97.8659L65.7061 108.375L66.9058 107.175Z" fill="white"/>
</svg>
