<svg width="104" height="130" viewBox="0 0 104 130" fill="none" xmlns="http://www.w3.org/2000/svg">
<path d="M75.5923 39.4231H16.9418V44.3558H75.5923V39.4231Z" fill="white"/>
<path d="M75.5923 47.4292H16.9418V52.3619H75.5923V47.4292Z" fill="white"/>
<path d="M75.5923 55.4611H16.9418V60.3938H75.5923V55.4611Z" fill="white"/>
<path d="M75.5923 63.467H16.9418V68.3998H75.5923V63.467Z" fill="white"/>
<path d="M62.5244 71.473H16.9418V76.4058H62.5244V71.473Z" fill="white"/>
<path d="M103.665 17.8586L88.5569 0.348649C88.092 -0.116216 87.2914 -0.116216 86.8265 0.348649L71.7184 17.8586C71.0469 18.5301 71.5634 19.5889 72.5707 19.5889H79.6469V33.3283H95.6848V19.5889H102.761C103.82 19.5889 104.336 18.5301 103.665 17.8586Z" fill="white"/>
<path d="M95.7107 35.8076H79.6729V42.0575H95.7107V35.8076Z" fill="white"/>
<path d="M79.6729 46.8352C79.6729 47.4034 80.1894 47.8683 80.835 47.8683H94.5485C95.1942 47.8683 95.7107 47.4034 95.7107 46.8352V44.5367H79.6729V46.8352Z" fill="white"/>
<path d="M85.7419 118.347C85.7419 122.427 82.4362 125.733 78.3557 125.733H14.1526C10.0721 125.733 6.76644 122.427 6.76644 118.347V116.074H3.35742V119.587C3.35742 124.881 7.64452 129.142 12.913 129.142H79.5695C84.8638 129.142 89.1251 124.855 89.1251 119.587V50.2184H85.7161V118.347H85.7419Z" fill="white"/>
<path d="M6.76637 26.9493C6.76637 22.8688 10.0721 19.5631 14.1526 19.5631H69.2133C68.8517 18.4268 69.1358 17.1613 69.9881 16.2832L70.0914 16.1799H12.9387C7.64445 16.1799 3.38318 20.467 3.38318 25.7355V84.4635H6.79219V26.9493H6.76637Z" fill="white"/>
<path d="M37.4733 94.613C36.3628 94.613 35.4848 95.0263 34.8391 95.8269C34.1935 96.6275 33.8835 97.6605 33.8835 98.926V101.664C33.8835 102.929 34.1935 103.962 34.8391 104.788C35.4848 105.589 36.3628 106.002 37.4475 106.002C38.6097 106.002 39.5136 105.589 40.1851 104.788C40.8565 103.988 41.1923 102.929 41.1923 101.664V98.926C41.1923 97.6605 40.8565 96.6275 40.1851 95.8269C39.5136 95.0263 38.6097 94.613 37.4733 94.613Z" fill="white"/>
<path d="M75.0758 100.295C75.0758 92.8827 69.0583 86.8395 61.6205 86.8395H0V113.724H61.6463C69.0583 113.724 75.0758 107.707 75.0758 100.295ZM28.4601 101.431C28.4601 103.316 27.8661 104.84 26.6781 106.028C25.4901 107.216 23.9406 107.81 22.0295 107.81H17.0451V92.7536H22.0295C23.9406 92.7536 25.4901 93.3476 26.6781 94.5356C27.8661 95.7236 28.4601 97.2731 28.4601 99.1326V101.431ZM43.6974 101.638C43.6974 103.471 43.1292 104.995 41.967 106.209C40.8049 107.423 39.307 108.017 37.4733 108.017C35.6655 108.017 34.2193 107.423 33.0829 106.209C31.9466 104.995 31.3784 103.471 31.3784 101.638V98.926C31.3784 97.0923 31.9466 95.5686 33.0571 94.3548C34.1676 93.141 35.6397 92.547 37.4475 92.547C39.2811 92.547 40.779 93.141 41.9412 94.3548C43.1034 95.5686 43.6715 97.0923 43.6715 98.926V101.638H43.6974ZM49.973 104.814C50.567 105.615 51.4193 106.028 52.4523 106.028C53.4854 106.028 54.2601 105.77 54.8025 105.227C55.3448 104.685 55.6031 103.91 55.6031 102.903H58.0307L58.0565 102.955C58.0824 104.479 57.5917 105.692 56.5845 106.622C55.5773 107.552 54.2085 108.017 52.4781 108.017C50.722 108.017 49.3016 107.423 48.2169 106.235C47.1322 105.047 46.5899 103.549 46.5899 101.689V98.8227C46.5899 96.989 47.1322 95.4653 48.1911 94.2773C49.2757 93.0893 50.6703 92.4953 52.4007 92.4953C54.1827 92.4953 55.5773 92.9344 56.5845 93.8383C57.5917 94.7422 58.1082 95.9818 58.0565 97.5572L58.0307 97.6089H55.6031C55.6031 96.6016 55.319 95.8269 54.7766 95.2845C54.2343 94.7422 53.4337 94.4839 52.3748 94.4839C51.3418 94.4839 50.5412 94.8971 49.9472 95.6977C49.3532 96.4983 49.0433 97.5314 49.0433 98.771V101.664C49.0433 102.981 49.3532 103.988 49.973 104.814Z" fill="white"/>
<path d="M22.0295 94.7681H19.576V105.796H22.0295C23.2433 105.796 24.1989 105.382 24.8962 104.582C25.5935 103.755 25.955 102.722 25.955 101.431V99.1326C25.955 97.8672 25.5935 96.8083 24.8962 96.0077C24.1731 95.1813 23.2175 94.7681 22.0295 94.7681Z" fill="white"/>
</svg>
