<svg width="235" height="235" viewBox="0 0 235 235" fill="none" xmlns="http://www.w3.org/2000/svg">
<circle cx="117.5" cy="117.5" r="111" fill="#00202D" stroke="#1B93A6" stroke-width="13"/>
<path d="M141.592 91.4231H82.9418V96.3558H141.592V91.4231Z" fill="white"/>
<path d="M141.592 99.4292H82.9418V104.362H141.592V99.4292Z" fill="white"/>
<path d="M141.592 107.461H82.9418V112.394H141.592V107.461Z" fill="white"/>
<path d="M141.592 115.467H82.9418V120.4H141.592V115.467Z" fill="white"/>
<path d="M128.524 123.473H82.9418V128.406H128.524V123.473Z" fill="white"/>
<path d="M169.665 69.8586L154.557 52.3486C154.092 51.8838 153.291 51.8838 152.827 52.3486L137.718 69.8586C137.047 70.5301 137.563 71.5889 138.571 71.5889H145.647V85.3283H161.685V71.5889H168.761C169.82 71.5889 170.336 70.5301 169.665 69.8586Z" fill="white"/>
<path d="M161.711 87.8076H145.673V94.0575H161.711V87.8076Z" fill="white"/>
<path d="M145.673 98.8352C145.673 99.4034 146.189 99.8683 146.835 99.8683H160.549C161.194 99.8683 161.711 99.4034 161.711 98.8352V96.5367H145.673V98.8352Z" fill="white"/>
<path d="M151.742 170.347C151.742 174.427 148.436 177.733 144.356 177.733H80.1526C76.0721 177.733 72.7664 174.427 72.7664 170.347V168.074H69.3574V171.587C69.3574 176.881 73.6445 181.142 78.913 181.142H145.57C150.864 181.142 155.125 176.855 155.125 171.587V102.218H151.716V170.347H151.742Z" fill="white"/>
<path d="M72.7664 78.9493C72.7664 74.8688 76.0721 71.5631 80.1526 71.5631H135.213C134.852 70.4268 135.136 69.1613 135.988 68.2832L136.091 68.1799H78.9387C73.6444 68.1799 69.3832 72.467 69.3832 77.7355V136.464H72.7922V78.9493H72.7664Z" fill="white"/>
<path d="M103.473 146.613C102.363 146.613 101.485 147.026 100.839 147.827C100.193 148.627 99.8835 149.66 99.8835 150.926V153.664C99.8835 154.929 100.193 155.962 100.839 156.788C101.485 157.589 102.363 158.002 103.448 158.002C104.61 158.002 105.514 157.589 106.185 156.788C106.857 155.988 107.192 154.929 107.192 153.664V150.926C107.192 149.66 106.857 148.627 106.185 147.827C105.514 147.026 104.61 146.613 103.473 146.613Z" fill="white"/>
<path d="M141.076 152.295C141.076 144.883 135.058 138.839 127.621 138.839H66V165.724H127.646C135.058 165.724 141.076 159.707 141.076 152.295ZM94.4601 153.431C94.4601 155.316 93.8661 156.84 92.6781 158.028C91.4901 159.216 89.9406 159.81 88.0295 159.81H83.0451V144.754H88.0295C89.9406 144.754 91.4901 145.348 92.6781 146.536C93.8661 147.724 94.4601 149.273 94.4601 151.133V153.431ZM109.697 153.638C109.697 155.471 109.129 156.995 107.967 158.209C106.805 159.423 105.307 160.017 103.473 160.017C101.666 160.017 100.219 159.423 99.0829 158.209C97.9466 156.995 97.3784 155.471 97.3784 153.638V150.926C97.3784 149.092 97.9466 147.569 99.0571 146.355C100.168 145.141 101.64 144.547 103.447 144.547C105.281 144.547 106.779 145.141 107.941 146.355C109.103 147.569 109.672 149.092 109.672 150.926V153.638H109.697ZM115.973 156.814C116.567 157.615 117.419 158.028 118.452 158.028C119.485 158.028 120.26 157.77 120.802 157.227C121.345 156.685 121.603 155.91 121.603 154.903H124.031L124.057 154.955C124.082 156.479 123.592 157.692 122.584 158.622C121.577 159.552 120.208 160.017 118.478 160.017C116.722 160.017 115.302 159.423 114.217 158.235C113.132 157.047 112.59 155.549 112.59 153.689V150.823C112.59 148.989 113.132 147.465 114.191 146.277C115.276 145.089 116.67 144.495 118.401 144.495C120.183 144.495 121.577 144.934 122.584 145.838C123.592 146.742 124.108 147.982 124.057 149.557L124.031 149.609H121.603C121.603 148.602 121.319 147.827 120.777 147.285C120.234 146.742 119.434 146.484 118.375 146.484C117.342 146.484 116.541 146.897 115.947 147.698C115.353 148.498 115.043 149.531 115.043 150.771V153.664C115.043 154.981 115.353 155.988 115.973 156.814Z" fill="white"/>
<path d="M88.0295 146.768H85.576V157.796H88.0295C89.2433 157.796 90.1989 157.382 90.8962 156.582C91.5935 155.755 91.955 154.722 91.955 153.431V151.133C91.955 149.867 91.5935 148.808 90.8962 148.008C90.1731 147.181 89.2175 146.768 88.0295 146.768Z" fill="white"/>
</svg>
