<svg width="151" height="120" viewBox="0 0 151 120" fill="none" xmlns="http://www.w3.org/2000/svg">
<rect width="151" height="120" rx="15" fill="#C6E4E9"/>
<path d="M128.521 48.8061C128.367 48.6504 128.184 48.527 127.983 48.4427C127.782 48.3585 127.566 48.3151 127.348 48.3151C127.13 48.3151 126.914 48.3585 126.713 48.4427C126.512 48.527 126.329 48.6504 126.175 48.8061L121.275 53.7066L99.04 31.1866L108.251 21.8557C108.545 21.5377 108.706 21.1164 108.698 20.6809C108.691 20.2455 108.515 19.8302 108.209 19.5232C107.903 19.2161 107.491 19.0413 107.059 19.036C106.628 19.0307 106.211 19.1951 105.898 19.4945L95.524 30.0038C95.2144 30.3177 95.0406 30.7426 95.0406 31.1855C95.0406 31.6284 95.2144 32.0533 95.524 32.3672L97.623 34.4945L92.2839 39.2435H84.4264C82.479 39.2437 80.5992 39.964 79.1424 41.2683L60.8428 57.6403C60.5356 57.9146 60.3397 58.2938 60.2929 58.705C60.246 59.1162 60.3515 59.5303 60.589 59.8678C60.7567 60.1062 64.3566 65.1425 69.2852 65.1425C69.8638 65.1425 70.4404 65.0722 71.0024 64.9331C75.079 63.9441 79.8597 59.6339 81.8396 57.7049C85.1218 59.3345 88.8391 59.8464 92.434 59.1639C99.2276 57.9165 100.821 55.1032 101.075 54.553C101.262 54.1462 101.284 53.6815 101.135 53.2588C100.987 52.836 100.68 52.4889 100.28 52.2921C100.086 52.1971 99.8754 52.1421 99.6599 52.1303C99.4445 52.1184 99.2288 52.15 99.0256 52.2232C98.8224 52.2964 98.6357 52.4098 98.4763 52.5566C98.317 52.7034 98.1882 52.8808 98.0976 53.0784C98.0976 53.0962 96.9565 54.9295 91.838 55.8717C88.6379 56.5168 85.3144 55.9389 82.5128 54.2501C82.1883 54.0175 81.7916 53.9108 81.3954 53.9497C80.9993 53.9886 80.6303 54.1704 80.3564 54.4617C78.7297 56.1791 73.7349 60.8234 70.2188 61.6788C69.0884 61.777 67.9516 61.5893 66.9111 61.1327C65.8706 60.6761 64.9592 59.965 64.2595 59.0637L81.343 43.7809C82.195 43.0187 83.2945 42.5986 84.433 42.6003H92.9129C93.3191 42.6013 93.7116 42.4524 94.0165 42.1815L99.9759 36.8801L115.007 52.0983L109.189 56.9988C108.971 57.1828 108.804 57.4197 108.704 57.6872C108.603 57.9547 108.571 58.2437 108.613 58.5269C108.922 60.6653 109.261 67.272 106.847 69.5129C104.278 71.8851 101.077 74.9658 99.3888 76.5985L83.7841 60.7967C83.6305 60.6409 83.4479 60.5172 83.247 60.4326C83.046 60.348 82.8304 60.3043 82.6127 60.3037C82.3949 60.3032 82.1792 60.346 81.9778 60.4296C81.7764 60.5132 81.5933 60.6361 81.439 60.7911C81.2846 60.9461 81.1621 61.1303 81.0782 61.3332C80.9944 61.536 80.951 61.7535 80.9505 61.9733C80.95 62.1931 80.9924 62.4108 81.0753 62.614C81.1581 62.8173 81.2798 63.0021 81.4335 63.1578L99.7287 81.6861C100.201 82.1667 100.467 82.8165 100.467 83.4937C100.467 84.1709 100.201 84.8206 99.7287 85.3013C99.2671 85.7729 98.6393 86.0408 97.9825 86.0467C97.3258 86.0525 96.6934 85.7958 96.2237 85.3325L84.5456 73.509C84.2353 73.1944 83.8139 73.0171 83.3741 73.016C82.9344 73.015 82.5122 73.1903 82.2004 73.5034C81.8887 73.8165 81.713 74.2418 81.712 74.6856C81.711 75.1295 81.8847 75.5555 82.1949 75.8701L93.8929 87.7092C94.728 88.4393 95.2566 89.4626 95.3717 90.5715C95.3496 90.8265 95.2715 91.0732 95.1433 91.294C95.015 91.5147 94.8397 91.7039 94.6301 91.8479C94.0231 92.3647 92.5995 93.572 90.335 91.3022L80.7845 81.6326C80.6326 81.4691 80.4496 81.3379 80.2465 81.2471C80.0433 81.1562 79.8242 81.1074 79.602 81.1036C79.3799 81.0998 79.1592 81.141 78.9531 81.2249C78.7471 81.3087 78.5598 81.4335 78.4024 81.5917C78.2449 81.75 78.1206 81.9385 78.0368 82.1462C77.9529 82.3539 77.9112 82.5764 77.9142 82.8006C77.9171 83.0248 77.9646 83.2462 78.0539 83.4515C78.1432 83.6568 78.2724 83.842 78.4339 83.996L87.9733 93.6566C88.4304 94.1393 88.6835 94.7826 88.6789 95.4503C88.6744 96.1179 88.4126 96.7577 87.949 97.234C87.4788 97.703 86.8444 97.966 86.1833 97.966C85.5222 97.966 84.8877 97.703 84.4175 97.234L83.0932 95.8975C83.0374 95.8556 82.9791 95.8169 82.9189 95.7817C82.8677 94.4855 82.3897 93.2436 81.5607 92.2524C80.7316 91.2612 79.5987 90.5772 78.3412 90.3087C78.5898 89.5787 78.6917 88.8059 78.6411 88.0357C78.5905 87.2654 78.3883 86.5131 78.0464 85.8225C77.7045 85.132 77.2297 84.5171 76.6497 84.0138C76.0697 83.5105 75.3962 83.1289 74.6685 82.8912C75.574 81.7624 76.0351 80.3363 75.9634 78.8858C75.8917 77.4353 75.2923 76.0625 74.28 75.0303C73.2382 74.0289 71.8726 73.4416 70.4353 73.3769C68.998 73.3122 67.586 73.7745 66.46 74.6784C66.0819 73.5094 65.3462 72.4915 64.3586 71.771C63.3711 71.0506 62.1827 70.6647 60.9642 70.6689C60.1967 70.6669 59.4365 70.8191 58.7278 71.1166C58.0192 71.4142 57.3764 71.8511 56.8368 72.4019L52.4776 76.8146C51.1953 75.4313 48.1163 72.1547 45.2602 69.5084C42.8433 67.2675 43.1832 60.6608 43.4944 58.5224C43.5355 58.2389 43.5036 57.9494 43.402 57.6819C43.3003 57.4143 43.1323 57.1775 42.914 56.9943L37.0782 52.0939L52.1178 36.8645L58.0927 42.1771C58.3978 42.4475 58.7901 42.5964 59.1962 42.5958H67.6387C68.8132 42.6035 69.9432 43.0503 70.8104 43.8499L71.2209 44.1685C71.5708 44.4231 72.0053 44.5303 72.4322 44.4672C72.8591 44.4041 73.2449 44.1757 73.5078 43.8305C73.7707 43.4852 73.89 43.0502 73.8405 42.6176C73.791 42.1851 73.5766 41.789 73.2427 41.5133L72.9226 41.2705C71.4661 39.9659 69.5861 39.2455 67.6387 39.2457H59.7922L54.4398 34.4855L56.53 32.3672C56.8396 32.0533 57.0134 31.6284 57.0134 31.1855C57.0134 30.7426 56.8396 30.3177 56.53 30.0038L46.1563 19.4945C45.846 19.1794 45.4244 19.0015 44.9842 19C44.544 18.9985 44.1213 19.1736 43.809 19.4867C43.4967 19.7998 43.3204 20.2253 43.319 20.6696C43.3175 21.1139 43.491 21.5405 43.8012 21.8557L53.014 31.1866L30.779 53.7021L25.879 48.8016C25.7276 48.6351 25.5444 48.5012 25.3403 48.4081C25.1362 48.3151 24.9156 48.2647 24.6917 48.26C24.4678 48.2554 24.2453 48.2965 24.0376 48.3811C23.8299 48.4656 23.6413 48.5917 23.4833 48.7519C23.3252 48.912 23.201 49.1027 23.118 49.3127C23.035 49.5226 22.995 49.7473 23.0005 49.9732C23.0059 50.1992 23.0567 50.4217 23.1497 50.6273C23.2427 50.8329 23.3761 51.0173 23.5416 51.1695L29.6158 57.2527C29.7695 57.4083 29.9522 57.5318 30.1533 57.616C30.3544 57.7002 30.57 57.7435 30.7878 57.7435C31.0055 57.7435 31.2211 57.7002 31.4222 57.616C31.6233 57.5318 31.806 57.4083 31.9598 57.2527L34.7011 54.4773L40.0689 58.9902C39.7974 61.6632 39.4597 68.7087 42.989 71.9831C45.7899 74.5826 48.9108 77.9038 50.1071 79.1958L49.9659 79.3383C48.8752 80.447 48.2631 81.9459 48.2631 83.5082C48.2631 85.0705 48.8752 86.5694 49.9659 87.678C50.5054 88.2288 51.1483 88.6655 51.857 88.9626C52.5656 89.2598 53.3259 89.4115 54.0933 89.4088H54.1529C54.1385 90.1893 54.2785 90.9648 54.5647 91.69C54.851 92.4152 55.2777 93.0755 55.8199 93.6322C56.3621 94.189 57.0089 94.631 57.7224 94.9323C58.4359 95.2337 59.2019 95.3884 59.9754 95.3874C60.0085 95.3874 60.0416 95.3874 60.0769 95.3874C60.0526 96.3868 60.2829 97.3758 60.7458 98.2597C61.2087 99.1436 61.8887 99.8927 62.7206 100.435C63.5525 100.978 64.5086 101.296 65.4972 101.359C66.4859 101.423 67.474 101.228 68.367 100.796C68.5558 101.556 68.8964 102.269 69.368 102.891C69.8395 103.513 70.4321 104.032 71.1094 104.415C71.7867 104.798 72.5344 105.037 73.3065 105.118C74.0787 105.199 74.8591 105.12 75.5999 104.885C76.6548 105.609 77.9002 105.997 79.1755 105.999C79.9388 106.012 80.697 105.872 81.4063 105.587C82.1156 105.303 82.7617 104.878 83.3073 104.34C84.145 103.49 84.6871 102.388 84.8524 101.201C85.669 101.393 86.5172 101.404 87.3385 101.233C88.1598 101.063 88.9348 100.715 89.6102 100.214C90.2857 99.7123 90.8456 99.0693 91.2515 98.3289C91.6574 97.5884 91.8997 96.7681 91.9616 95.9242C92.8195 96.0503 93.6944 95.9828 94.5234 95.7267C95.3523 95.4705 96.1147 95.0321 96.7556 94.4429C97.3131 94.0012 97.7723 93.4461 98.1035 92.8137C98.4347 92.1813 98.6304 91.4857 98.6781 90.772C98.7004 90.3032 98.6603 89.8335 98.5589 89.3754C99.8903 89.243 101.135 88.6477 102.079 87.6914C103.171 86.583 103.783 85.084 103.783 83.5215C103.783 81.9591 103.171 80.4601 102.079 79.3517L101.733 78.9997C103.421 77.367 106.564 74.3443 109.083 72.0076C112.614 68.7332 112.274 61.6721 112.003 59.0125L117.353 54.5018L120.092 57.2772C120.246 57.4328 120.428 57.5563 120.63 57.6405C120.831 57.7247 121.046 57.768 121.264 57.768C121.482 57.768 121.697 57.7247 121.898 57.6405C122.1 57.5563 122.282 57.4328 122.436 57.2772L128.51 51.1695C128.822 50.8573 128.998 50.4332 129 49.9901C129.002 49.547 128.83 49.1212 128.521 48.8061ZM52.3187 85.3124C51.8464 84.8311 51.5815 84.1811 51.5815 83.5037C51.5815 82.8263 51.8464 82.1763 52.3187 81.695L59.1609 74.7675C59.3939 74.5314 59.6708 74.344 59.9757 74.2162C60.2806 74.0883 60.6075 74.0225 60.9377 74.0225C61.2679 74.0225 61.5948 74.0883 61.8997 74.2162C62.2046 74.344 62.4815 74.5314 62.7145 74.7675C63.1803 75.2393 63.4448 75.8763 63.4514 76.5422C63.458 77.2082 63.2062 77.8504 62.7498 78.3315L55.8502 85.3191L55.8237 85.3503C55.3445 85.7955 54.7151 86.0395 54.0638 86.0324C53.4125 86.0254 52.7884 85.7679 52.3187 85.3124ZM58.2008 91.2866C57.739 90.8123 57.4778 90.1754 57.4725 89.5104C57.4671 88.8455 57.718 88.2044 58.1721 87.7226C58.1876 87.707 58.2052 87.6981 58.2207 87.6825C58.2361 87.6669 58.2472 87.6357 58.2648 87.6157L64.9901 80.7951C65.0099 80.7773 65.0364 80.7706 65.0541 80.7528C65.0717 80.735 65.1159 80.6704 65.1512 80.6325L68.345 77.3982C68.5779 77.1624 68.8546 76.9753 69.1593 76.8476C69.464 76.72 69.7907 76.6543 70.1206 76.6543C70.4505 76.6543 70.7772 76.72 71.0819 76.8476C71.3866 76.9753 71.6634 77.1624 71.8963 77.3982C72.3694 77.8782 72.6349 78.5277 72.6349 79.2047C72.6349 79.8817 72.3694 80.5312 71.8963 81.0112L61.7433 91.291C61.2651 91.7492 60.6306 92.0043 59.9712 92.0035C59.3118 92.0027 58.6779 91.746 58.2008 91.2866ZM64.1226 97.2607C63.6505 96.7798 63.3856 96.1301 63.3856 95.4531C63.3856 94.7761 63.6505 94.1264 64.1226 93.6455C64.1359 93.6321 64.1403 93.6121 64.1535 93.5987L70.9781 86.6935C70.9935 86.6801 71.0112 86.6757 71.0244 86.6623C71.2574 86.4262 71.5343 86.2388 71.8392 86.111C72.1441 85.9831 72.471 85.9173 72.8012 85.9173C73.1314 85.9173 73.4583 85.9831 73.7632 86.111C74.0681 86.2388 74.345 86.4262 74.578 86.6623C75.0509 87.1419 75.3165 87.791 75.3165 88.4677C75.3165 89.1443 75.0509 89.7935 74.578 90.2731L72.9668 91.9036L69.8458 95.051L67.6806 97.2451C67.2036 97.7096 66.5675 97.9705 65.9047 97.9734C65.2419 97.9763 64.6036 97.721 64.1226 97.2607ZM72.1965 101.034C71.7236 100.555 71.4582 99.9061 71.4582 99.2298C71.4582 98.5535 71.7236 97.9048 72.1965 97.4255L75.324 94.258C75.5567 94.023 75.833 93.8365 76.1371 93.7093C76.4412 93.5821 76.7672 93.5166 77.0964 93.5166C77.4256 93.5166 77.7516 93.5821 78.0557 93.7093C78.3598 93.8365 78.6361 94.023 78.8687 94.258C79.3407 94.7386 79.6056 95.3879 79.6056 96.0645C79.6056 96.7412 79.3407 97.3905 78.8687 97.871L75.7478 101.032C75.2713 101.496 74.6349 101.756 73.9726 101.756C73.3102 101.757 72.6735 101.498 72.1965 101.034ZM80.9611 101.945C80.7222 102.17 80.4416 102.344 80.1355 102.459C79.8295 102.574 79.504 102.626 79.1777 102.613C79.0872 102.613 79.0078 102.571 78.9173 102.564L81.2194 100.234C81.3319 100.119 81.4136 99.9872 81.5151 99.8646C81.6027 100.232 81.5979 100.616 81.5012 100.981C81.4044 101.347 81.2188 101.682 80.9611 101.956V101.945Z" fill="#023347"/>
</svg>
